<svg width="1247" height="884" viewBox="0 0 1247 884" fill="none" xmlns="http://www.w3.org/2000/svg">
<g clip-path="url(#clip0_306_18)">
<path d="M621.18 0.999341C623.005 0.35281 624.995 0.352821 626.82 0.999352L1241.92 219.008C1245.29 220.202 1247.54 223.389 1247.54 226.963V657.037C1247.54 660.611 1245.29 663.798 1241.92 664.992L626.82 883.001C624.995 883.647 623.005 883.647 621.18 883.001L6.08239 664.992C2.71331 663.798 0.461731 660.611 0.461731 657.037V226.963C0.461731 223.389 2.71331 220.202 6.08239 219.008L621.18 0.999341Z" fill="#808080" fill-opacity="0.75"/>
<path d="M1056.87 293.79L629.792 160.395C625.89 159.176 621.71 159.176 617.809 160.395L190.735 293.79C182.344 296.411 176.63 304.181 176.63 312.972V571.222C176.63 580.013 182.344 587.783 190.735 590.404L617.809 723.799C621.71 725.018 625.89 725.018 629.792 723.799L1056.87 590.404C1065.26 587.783 1070.97 580.013 1070.97 571.222V312.972C1070.97 304.181 1065.26 296.411 1056.87 293.79Z" stroke="white" stroke-width="20"/>
<path d="M490.551 351.142C489.718 351.142 489.06 350.901 488.578 350.419C488.096 349.937 487.811 349.411 487.723 348.841L481.146 306.816C481.146 306.772 481.124 306.729 481.081 306.685C481.081 306.641 481.081 306.597 481.081 306.553C481.081 306.159 481.212 305.83 481.475 305.567C481.782 305.26 482.133 305.106 482.528 305.106H492.721C494.08 305.106 494.826 305.654 494.957 306.751L498.18 328.848L501.928 317.142C502.016 316.835 502.213 316.462 502.52 316.023C502.827 315.541 503.353 315.3 504.099 315.3H509.82C510.566 315.3 511.092 315.541 511.399 316.023C511.706 316.462 511.925 316.835 512.056 317.142L515.739 328.782L519.028 306.751C519.159 305.654 519.883 305.106 521.198 305.106H531.392C531.786 305.106 532.115 305.26 532.378 305.567C532.685 305.83 532.838 306.159 532.838 306.553C532.838 306.597 532.838 306.641 532.838 306.685C532.838 306.729 532.816 306.772 532.773 306.816L526.196 348.841C526.152 349.411 525.867 349.937 525.341 350.419C524.859 350.901 524.201 351.142 523.368 351.142H515.542C514.753 351.142 514.161 350.945 513.766 350.551C513.372 350.112 513.109 349.739 512.977 349.433L506.992 333.254L500.942 349.433C500.854 349.739 500.591 350.112 500.153 350.551C499.758 350.945 499.166 351.142 498.377 351.142H490.551ZM558.154 351.8C553.945 351.8 550.284 351.142 547.171 349.827C544.102 348.512 541.669 346.539 539.871 343.908C538.117 341.234 537.175 337.924 537.043 333.978C536.999 332.136 536.978 330.251 536.978 328.322C536.978 326.349 536.999 324.398 537.043 322.469C537.175 318.566 538.117 315.278 539.871 312.604C541.669 309.929 544.124 307.912 547.237 306.553C550.35 305.15 553.989 304.449 558.154 304.449C562.275 304.449 565.893 305.15 569.005 306.553C572.118 307.912 574.574 309.929 576.371 312.604C578.169 315.278 579.112 318.566 579.199 322.469C579.287 324.398 579.331 326.349 579.331 328.322C579.331 330.251 579.287 332.136 579.199 333.978C579.068 337.924 578.103 341.234 576.305 343.908C574.552 346.539 572.118 348.512 569.005 349.827C565.936 351.142 562.319 351.8 558.154 351.8ZM558.154 340.62C559.996 340.62 561.508 340.072 562.692 338.976C563.876 337.836 564.49 336.038 564.533 333.583C564.621 331.698 564.665 329.878 564.665 328.124C564.665 326.327 564.621 324.507 564.533 322.666C564.49 321.044 564.183 319.706 563.613 318.654C563.087 317.602 562.341 316.835 561.377 316.352C560.456 315.87 559.382 315.629 558.154 315.629C556.926 315.629 555.83 315.87 554.866 316.352C553.901 316.835 553.134 317.602 552.564 318.654C552.038 319.706 551.753 321.044 551.709 322.666C551.665 324.507 551.643 326.327 551.643 328.124C551.643 329.878 551.665 331.698 551.709 333.583C551.797 336.038 552.411 337.836 553.551 338.976C554.734 340.072 556.269 340.62 558.154 340.62ZM587.786 351.142C587.347 351.142 586.953 350.989 586.602 350.682C586.251 350.331 586.076 349.915 586.076 349.433V306.816C586.076 306.334 586.251 305.939 586.602 305.632C586.953 305.282 587.347 305.106 587.786 305.106H606.529C612.492 305.106 617.161 306.466 620.537 309.184C623.957 311.902 625.667 315.695 625.667 320.561C625.667 323.63 624.965 326.239 623.562 328.387C622.159 330.536 620.318 332.224 618.038 333.451L626.588 348.972C626.719 349.235 626.785 349.476 626.785 349.696C626.785 350.09 626.653 350.441 626.39 350.748C626.127 351.011 625.798 351.142 625.404 351.142H614.289C613.456 351.142 612.821 350.945 612.382 350.551C611.944 350.112 611.659 349.718 611.527 349.367L604.951 335.819H600.215V349.433C600.215 349.915 600.04 350.331 599.689 350.682C599.382 350.989 598.988 351.142 598.506 351.142H587.786ZM600.215 324.968H606.463C607.998 324.968 609.138 324.551 609.883 323.718C610.628 322.841 611.001 321.767 611.001 320.496C611.001 319.18 610.628 318.062 609.883 317.142C609.182 316.221 608.042 315.76 606.463 315.76H600.215V324.968ZM634.284 351.142C633.846 351.142 633.451 350.989 633.1 350.682C632.75 350.331 632.574 349.915 632.574 349.433V306.816C632.574 306.334 632.75 305.939 633.1 305.632C633.451 305.282 633.846 305.106 634.284 305.106H652.304C656.557 305.106 660.24 305.808 663.353 307.211C666.466 308.57 668.921 310.587 670.719 313.261C672.516 315.936 673.481 319.224 673.612 323.126C673.7 325.011 673.744 326.678 673.744 328.124C673.744 329.571 673.7 331.215 673.612 333.057C673.437 337.178 672.494 340.576 670.784 343.251C669.118 345.925 666.751 347.92 663.682 349.235C660.613 350.507 656.93 351.142 652.633 351.142H634.284ZM646.714 339.962H652.304C653.751 339.962 654.979 339.721 655.987 339.239C656.995 338.757 657.785 338.011 658.355 337.003C658.925 335.951 659.231 334.613 659.275 332.991C659.319 331.72 659.341 330.58 659.341 329.571C659.385 328.563 659.385 327.554 659.341 326.546C659.341 325.538 659.319 324.42 659.275 323.192C659.188 320.781 658.486 319.027 657.171 317.931C655.899 316.835 654.167 316.287 651.975 316.287H646.714V339.962ZM682.131 351.142C681.693 351.142 681.298 350.989 680.948 350.682C680.597 350.331 680.422 349.915 680.422 349.433V306.816C680.422 306.334 680.597 305.939 680.948 305.632C681.298 305.282 681.693 305.106 682.131 305.106H714.357C714.839 305.106 715.256 305.282 715.606 305.632C715.957 305.939 716.132 306.334 716.132 306.816V314.577C716.132 315.015 715.957 315.41 715.606 315.76C715.256 316.111 714.839 316.287 714.357 316.287H694.035V322.797H712.91C713.392 322.797 713.809 322.973 714.159 323.324C714.51 323.63 714.686 324.025 714.686 324.507V331.61C714.686 332.092 714.51 332.509 714.159 332.86C713.809 333.166 713.392 333.32 712.91 333.32H694.035V339.962H714.883C715.365 339.962 715.782 340.138 716.132 340.488C716.483 340.839 716.659 341.256 716.659 341.738V349.433C716.659 349.915 716.483 350.331 716.132 350.682C715.782 350.989 715.365 351.142 714.883 351.142H682.131ZM725.098 351.142C724.659 351.142 724.265 350.989 723.914 350.682C723.563 350.331 723.388 349.915 723.388 349.433V306.816C723.388 306.334 723.563 305.939 723.914 305.632C724.265 305.282 724.659 305.106 725.098 305.106H733.844C734.634 305.106 735.204 305.304 735.554 305.698C735.905 306.049 736.146 306.312 736.278 306.487L749.826 328.256V306.816C749.826 306.334 750.001 305.939 750.352 305.632C750.702 305.282 751.097 305.106 751.536 305.106H761.466C761.948 305.106 762.343 305.282 762.65 305.632C763.001 305.939 763.176 306.334 763.176 306.816V349.433C763.176 349.915 763.001 350.331 762.65 350.682C762.343 350.989 761.948 351.142 761.466 351.142H752.785C751.952 351.142 751.36 350.967 751.009 350.616C750.659 350.222 750.417 349.937 750.286 349.761L736.738 329.242V349.433C736.738 349.915 736.563 350.331 736.212 350.682C735.905 350.989 735.511 351.142 735.028 351.142H725.098ZM370.304 429.142C369.821 429.142 369.405 428.989 369.054 428.682C368.747 428.331 368.594 427.915 368.594 427.433V395.339H357.282C356.8 395.339 356.383 395.185 356.033 394.878C355.726 394.528 355.572 394.111 355.572 393.629V384.816C355.572 384.334 355.726 383.939 356.033 383.632C356.383 383.282 356.8 383.106 357.282 383.106H394.243C394.725 383.106 395.119 383.282 395.426 383.632C395.777 383.939 395.952 384.334 395.952 384.816V393.629C395.952 394.111 395.777 394.528 395.426 394.878C395.119 395.185 394.725 395.339 394.243 395.339H382.931V427.433C382.931 427.915 382.755 428.331 382.405 428.682C382.098 428.989 381.703 429.142 381.221 429.142H370.304ZM403.012 429.142C402.574 429.142 402.179 428.989 401.828 428.682C401.477 428.331 401.302 427.915 401.302 427.433V384.816C401.302 384.334 401.477 383.939 401.828 383.632C402.179 383.282 402.574 383.106 403.012 383.106H421.755C427.718 383.106 432.387 384.466 435.763 387.184C439.183 389.902 440.893 393.695 440.893 398.561C440.893 401.63 440.192 404.239 438.789 406.387C437.386 408.536 435.544 410.224 433.264 411.451L441.814 426.972C441.945 427.235 442.011 427.476 442.011 427.696C442.011 428.09 441.88 428.441 441.617 428.748C441.353 429.011 441.025 429.142 440.63 429.142H429.516C428.683 429.142 428.047 428.945 427.608 428.551C427.17 428.112 426.885 427.718 426.753 427.367L420.177 413.819H415.442V427.433C415.442 427.915 415.266 428.331 414.916 428.682C414.609 428.989 414.214 429.142 413.732 429.142H403.012ZM415.442 402.968H421.689C423.224 402.968 424.364 402.551 425.109 401.718C425.855 400.841 426.227 399.767 426.227 398.496C426.227 397.18 425.855 396.062 425.109 395.142C424.408 394.221 423.268 393.76 421.689 393.76H415.442V402.968ZM449.51 429.142C449.072 429.142 448.677 428.989 448.327 428.682C447.976 428.331 447.801 427.915 447.801 427.433V384.816C447.801 384.334 447.976 383.939 448.327 383.632C448.677 383.282 449.072 383.106 449.51 383.106H481.736C482.218 383.106 482.635 383.282 482.985 383.632C483.336 383.939 483.511 384.334 483.511 384.816V392.577C483.511 393.015 483.336 393.41 482.985 393.76C482.635 394.111 482.218 394.287 481.736 394.287H461.414V400.797H480.289C480.771 400.797 481.188 400.973 481.538 401.324C481.889 401.63 482.065 402.025 482.065 402.507V409.61C482.065 410.092 481.889 410.509 481.538 410.86C481.188 411.166 480.771 411.32 480.289 411.32H461.414V417.962H482.262C482.744 417.962 483.161 418.138 483.511 418.488C483.862 418.839 484.038 419.256 484.038 419.738V427.433C484.038 427.915 483.862 428.331 483.511 428.682C483.161 428.989 482.744 429.142 482.262 429.142H449.51ZM492.477 429.142C492.038 429.142 491.644 428.989 491.293 428.682C490.942 428.331 490.767 427.915 490.767 427.433V384.816C490.767 384.334 490.942 383.939 491.293 383.632C491.644 383.282 492.038 383.106 492.477 383.106H524.702C525.184 383.106 525.601 383.282 525.951 383.632C526.302 383.939 526.478 384.334 526.478 384.816V392.577C526.478 393.015 526.302 393.41 525.951 393.76C525.601 394.111 525.184 394.287 524.702 394.287H504.38V400.797H523.255C523.737 400.797 524.154 400.973 524.505 401.324C524.855 401.63 525.031 402.025 525.031 402.507V409.61C525.031 410.092 524.855 410.509 524.505 410.86C524.154 411.166 523.737 411.32 523.255 411.32H504.38V417.962H525.228C525.71 417.962 526.127 418.138 526.478 418.488C526.828 418.839 527.004 419.256 527.004 419.738V427.433C527.004 427.915 526.828 428.331 526.478 428.682C526.127 428.989 525.71 429.142 525.228 429.142H492.477ZM566.696 429.8C562.531 429.8 558.892 429.164 555.779 427.893C552.666 426.578 550.211 424.605 548.413 421.974C546.659 419.343 545.695 416.011 545.519 411.978C545.476 410.18 545.454 408.251 545.454 406.19C545.454 404.13 545.476 402.157 545.519 400.271C545.695 396.325 546.681 393.037 548.479 390.406C550.32 387.732 552.797 385.737 555.91 384.422C559.067 383.106 562.662 382.449 566.696 382.449C569.59 382.449 572.286 382.799 574.785 383.501C577.328 384.159 579.586 385.189 581.559 386.592C583.532 387.951 585.088 389.661 586.228 391.722C587.368 393.739 587.96 396.106 588.004 398.824C588.004 399.219 587.851 399.548 587.544 399.811C587.281 400.074 586.952 400.205 586.557 400.205H575.443C574.785 400.205 574.303 400.074 573.996 399.811C573.689 399.548 573.426 399.087 573.207 398.43C572.637 396.545 571.804 395.273 570.708 394.615C569.612 393.958 568.274 393.629 566.696 393.629C564.767 393.629 563.232 394.155 562.092 395.207C560.952 396.216 560.339 398.013 560.251 400.6C560.119 404.195 560.119 407.878 560.251 411.649C560.339 414.236 560.952 416.055 562.092 417.107C563.232 418.116 564.767 418.62 566.696 418.62C568.274 418.62 569.612 418.269 570.708 417.568C571.848 416.866 572.681 415.617 573.207 413.819C573.382 413.118 573.623 412.657 573.93 412.438C574.281 412.175 574.785 412.043 575.443 412.043H586.557C586.952 412.043 587.281 412.175 587.544 412.438C587.851 412.701 588.004 413.03 588.004 413.424C587.96 416.143 587.368 418.532 586.228 420.593C585.088 422.61 583.532 424.32 581.559 425.723C579.586 427.082 577.328 428.112 574.785 428.814C572.286 429.471 569.59 429.8 566.696 429.8ZM613.901 429.8C609.692 429.8 606.031 429.142 602.918 427.827C599.849 426.512 597.416 424.539 595.618 421.908C593.864 419.234 592.922 415.924 592.79 411.978C592.746 410.136 592.724 408.251 592.724 406.322C592.724 404.349 592.746 402.398 592.79 400.469C592.922 396.566 593.864 393.278 595.618 390.604C597.416 387.929 599.871 385.912 602.984 384.553C606.097 383.15 609.736 382.449 613.901 382.449C618.022 382.449 621.639 383.15 624.752 384.553C627.865 385.912 630.32 387.929 632.118 390.604C633.916 393.278 634.858 396.566 634.946 400.469C635.034 402.398 635.078 404.349 635.078 406.322C635.078 408.251 635.034 410.136 634.946 411.978C634.814 415.924 633.85 419.234 632.052 421.908C630.299 424.539 627.865 426.512 624.752 427.827C621.683 429.142 618.066 429.8 613.901 429.8ZM613.901 418.62C615.742 418.62 617.255 418.072 618.439 416.976C619.623 415.836 620.236 414.038 620.28 411.583C620.368 409.698 620.412 407.878 620.412 406.124C620.412 404.327 620.368 402.507 620.28 400.666C620.236 399.044 619.929 397.706 619.36 396.654C618.833 395.602 618.088 394.835 617.123 394.352C616.203 393.87 615.129 393.629 613.901 393.629C612.673 393.629 611.577 393.87 610.613 394.352C609.648 394.835 608.881 395.602 608.311 396.654C607.785 397.706 607.5 399.044 607.456 400.666C607.412 402.507 607.39 404.327 607.39 406.124C607.39 407.878 607.412 409.698 607.456 411.583C607.544 414.038 608.157 415.836 609.297 416.976C610.481 418.072 612.016 418.62 613.901 418.62ZM643.598 429.142C643.116 429.142 642.7 428.989 642.349 428.682C641.998 428.331 641.823 427.915 641.823 427.433V384.816C641.823 384.334 641.998 383.939 642.349 383.632C642.7 383.282 643.116 383.106 643.598 383.106H652.345C653.134 383.106 653.726 383.326 654.121 383.764C654.515 384.202 654.779 384.509 654.91 384.685L665.433 402.968L675.955 384.685C676.087 384.509 676.35 384.202 676.744 383.764C677.139 383.326 677.731 383.106 678.52 383.106H687.267C687.749 383.106 688.144 383.282 688.451 383.632C688.801 383.939 688.977 384.334 688.977 384.816V427.433C688.977 427.915 688.801 428.331 688.451 428.682C688.144 428.989 687.749 429.142 687.267 429.142H677.402C676.92 429.142 676.503 428.989 676.152 428.682C675.846 428.331 675.692 427.915 675.692 427.433V406.124L669.773 416.515C669.554 416.866 669.269 417.217 668.918 417.568C668.567 417.918 668.063 418.094 667.406 418.094H663.394C662.78 418.094 662.298 417.918 661.947 417.568C661.596 417.217 661.311 416.866 661.092 416.515L655.173 406.124V427.433C655.173 427.915 654.998 428.331 654.647 428.682C654.34 428.989 653.945 429.142 653.463 429.142H643.598ZM698.894 429.142C698.456 429.142 698.061 428.989 697.71 428.682C697.36 428.331 697.184 427.915 697.184 427.433V384.816C697.184 384.334 697.36 383.939 697.71 383.632C698.061 383.282 698.456 383.106 698.894 383.106H718.098C721.912 383.106 725.222 383.676 728.028 384.816C730.878 385.956 733.092 387.688 734.671 390.012C736.249 392.336 737.038 395.251 737.038 398.759C737.038 402.266 736.249 405.16 734.671 407.44C733.092 409.676 730.878 411.32 728.028 412.372C725.222 413.424 721.912 413.951 718.098 413.951H711.85V427.433C711.85 427.915 711.675 428.331 711.324 428.682C711.017 428.989 710.622 429.142 710.14 429.142H698.894ZM711.587 403.362H717.769C719.04 403.362 720.115 402.99 720.991 402.244C721.912 401.455 722.372 400.249 722.372 398.627C722.372 397.399 722.022 396.281 721.32 395.273C720.619 394.265 719.435 393.76 717.769 393.76H711.587V403.362ZM736.884 429.142C736.489 429.142 736.138 429.011 735.831 428.748C735.568 428.441 735.437 428.09 735.437 427.696C735.437 427.52 735.481 427.367 735.568 427.235L750.563 385.145C750.694 384.663 750.979 384.202 751.418 383.764C751.9 383.326 752.536 383.106 753.325 383.106H765.36C766.193 383.106 766.829 383.326 767.267 383.764C767.706 384.202 767.991 384.663 768.122 385.145L783.183 427.235C783.227 427.367 783.249 427.52 783.249 427.696C783.249 428.09 783.095 428.441 782.788 428.748C782.525 429.011 782.196 429.142 781.802 429.142H771.674C770.928 429.142 770.38 428.967 770.03 428.616C769.679 428.266 769.438 427.937 769.306 427.63L767.267 422.106H751.418L749.379 427.63C749.248 427.937 749.006 428.266 748.656 428.616C748.349 428.967 747.801 429.142 747.012 429.142H736.884ZM754.443 410.991H764.242L759.31 396.194L754.443 410.991ZM789.322 429.142C788.884 429.142 788.489 428.989 788.138 428.682C787.788 428.331 787.612 427.915 787.612 427.433V384.816C787.612 384.334 787.788 383.939 788.138 383.632C788.489 383.282 788.884 383.106 789.322 383.106H798.069C798.858 383.106 799.428 383.304 799.779 383.698C800.13 384.049 800.371 384.312 800.502 384.487L814.05 406.256V384.816C814.05 384.334 814.225 383.939 814.576 383.632C814.927 383.282 815.322 383.106 815.76 383.106H825.691C826.173 383.106 826.567 383.282 826.874 383.632C827.225 383.939 827.401 384.334 827.401 384.816V427.433C827.401 427.915 827.225 428.331 826.874 428.682C826.567 428.989 826.173 429.142 825.691 429.142H817.01C816.176 429.142 815.585 428.967 815.234 428.616C814.883 428.222 814.642 427.937 814.51 427.761L800.963 407.242V427.433C800.963 427.915 800.787 428.331 800.437 428.682C800.13 428.989 799.735 429.142 799.253 429.142H789.322ZM849.068 429.142C848.586 429.142 848.17 428.989 847.819 428.682C847.512 428.331 847.358 427.915 847.358 427.433V413.885L832.364 385.145C832.32 385.057 832.276 384.97 832.232 384.882C832.188 384.751 832.166 384.641 832.166 384.553C832.166 384.159 832.298 383.83 832.561 383.567C832.868 383.26 833.219 383.106 833.613 383.106H843.873C844.662 383.106 845.254 383.304 845.648 383.698C846.043 384.093 846.306 384.4 846.438 384.619L854.461 399.745L862.485 384.619C862.572 384.4 862.813 384.093 863.208 383.698C863.603 383.304 864.194 383.106 864.984 383.106H875.309C875.66 383.106 875.967 383.26 876.23 383.567C876.537 383.83 876.69 384.159 876.69 384.553C876.69 384.641 876.668 384.751 876.624 384.882C876.624 384.97 876.602 385.057 876.558 385.145L861.498 413.885V427.433C861.498 427.915 861.323 428.331 860.972 428.682C860.665 428.989 860.27 429.142 859.788 429.142H849.068ZM877.545 429.142C877.063 429.142 876.646 428.989 876.295 428.682C875.988 428.331 875.835 427.915 875.835 427.433V417.568C875.835 417.085 875.988 416.669 876.295 416.318C876.646 415.967 877.063 415.792 877.545 415.792H887.41C887.892 415.792 888.309 415.967 888.659 416.318C889.01 416.669 889.185 417.085 889.185 417.568V427.433C889.185 427.915 889.01 428.331 888.659 428.682C888.309 428.989 887.892 429.142 887.41 429.142H877.545Z" fill="white"/>
<ellipse cx="226.018" cy="334.844" rx="10.096" ry="9.9308" fill="white"/>
<ellipse cx="226.018" cy="553.322" rx="10.096" ry="9.9308" fill="white"/>
<ellipse cx="1027.64" cy="553.322" rx="10.096" ry="9.9308" fill="white"/>
<ellipse cx="1027.64" cy="334.844" rx="10.096" ry="9.9308" fill="white"/>
<ellipse cx="623.8" cy="203.758" rx="10.096" ry="9.9308" fill="white"/>
<ellipse cx="623.8" cy="677.457" rx="10.096" ry="9.9308" fill="white"/>
<rect x="293.661" y="511.613" width="661.289" height="9.9308" rx="4.9654" fill="white"/>
<path d="M509.701 607.281L515.077 570.783H538.323L537.515 576.059H520.352L518.863 586.281H533.982L533.225 591.48H518.081L516.541 601.93L534.108 601.955L533.3 607.281H509.701ZM553.751 607.785C552.034 607.785 550.385 607.575 548.804 607.154C547.222 606.717 545.817 606.061 544.588 605.186C543.377 604.311 542.426 603.208 541.736 601.879C541.046 600.55 540.727 598.985 540.777 597.185H547.138C547.222 598.413 547.584 599.448 548.223 600.289C548.879 601.13 549.737 601.77 550.798 602.207C551.874 602.645 553.086 602.864 554.432 602.864C555.879 602.864 557.217 602.662 558.445 602.258C559.674 601.854 560.683 601.265 561.474 600.491C562.282 599.717 562.77 598.766 562.938 597.639C563.073 596.646 562.93 595.805 562.509 595.115C562.105 594.425 561.482 593.861 560.641 593.424C559.8 592.969 558.79 592.608 557.612 592.338L551.353 590.875C548.762 590.319 546.81 589.242 545.497 587.644C544.185 586.045 543.705 583.917 544.058 581.258C544.361 579.054 545.211 577.136 546.608 575.503C548.004 573.854 549.771 572.584 551.908 571.692C554.045 570.783 556.367 570.329 558.874 570.329C561.634 570.329 563.939 570.851 565.79 571.894C567.658 572.937 569.038 574.292 569.929 575.958C570.821 577.607 571.2 579.348 571.065 581.182H564.831C564.881 579.735 564.629 578.583 564.074 577.724C563.518 576.866 562.728 576.252 561.701 575.882C560.692 575.512 559.531 575.327 558.218 575.327C556.939 575.327 555.745 575.537 554.634 575.958C553.54 576.361 552.632 576.959 551.908 577.75C551.201 578.541 550.772 579.483 550.621 580.577C550.469 581.754 550.722 582.714 551.378 583.454C552.034 584.177 553.355 584.792 555.341 585.296L561.449 586.76C563.401 587.164 564.932 587.77 566.043 588.578C567.153 589.385 567.952 590.311 568.44 591.354C568.928 592.38 569.198 593.432 569.248 594.509C569.315 595.586 569.282 596.612 569.147 597.588C568.895 599.49 568.087 601.214 566.724 602.763C565.361 604.311 563.569 605.539 561.348 606.448C559.127 607.339 556.594 607.785 553.751 607.785ZM581.946 607.281L586.438 576.311H575.61L576.418 570.783H603.804L602.996 576.311H592.496L587.978 607.281H581.946ZM596.249 607.281L597.309 600.213H604.073L603.013 607.281H596.249ZM619.944 607.281L620.398 603.999L620.65 602.308C620.953 600.138 621.652 598.303 622.745 596.806C623.856 595.308 625.185 594.03 626.733 592.969C628.281 591.893 629.905 590.933 631.605 590.092C633.321 589.251 634.936 588.418 636.451 587.593C637.965 586.752 639.244 585.818 640.287 584.792C641.33 583.748 641.953 582.495 642.155 581.031C642.391 579.399 642.029 578.069 641.07 577.043C640.127 576 638.714 575.478 636.829 575.478C635.517 575.478 634.305 575.747 633.195 576.286C632.101 576.824 631.159 577.607 630.368 578.633C629.577 579.643 628.996 580.871 628.626 582.318H622.771C623.107 580.097 623.898 578.078 625.143 576.261C626.405 574.443 628.088 572.996 630.191 571.919C632.311 570.826 634.827 570.279 637.738 570.279C640.279 570.279 642.407 570.733 644.124 571.642C645.84 572.533 647.085 573.787 647.859 575.402C648.633 577.001 648.86 578.869 648.541 581.006C648.238 583.176 647.548 585.002 646.471 586.483C645.394 587.947 644.09 589.183 642.559 590.193C641.044 591.203 639.454 592.103 637.788 592.894C636.139 593.668 634.566 594.442 633.069 595.216C631.588 595.99 630.343 596.873 629.333 597.866C628.323 598.842 627.718 600.053 627.516 601.501L627.44 602.031H645.663L644.906 607.281H619.944ZM662.779 607.836C658.673 607.836 655.678 606.246 653.794 603.065C651.909 599.885 651.388 595.249 652.229 589.158C652.818 585.052 653.844 581.603 655.308 578.81C656.772 576 658.589 573.88 660.76 572.449C662.947 571.002 665.396 570.279 668.105 570.279C672.143 570.279 675.113 571.886 677.015 575.099C678.916 578.297 679.438 582.966 678.579 589.108C677.721 595.216 675.896 599.868 673.102 603.065C670.309 606.246 666.868 607.836 662.779 607.836ZM663.536 602.712C665.808 602.712 667.634 601.66 669.013 599.557C670.41 597.454 671.453 593.979 672.143 589.133C672.833 584.186 672.766 580.635 671.941 578.482C671.134 576.328 669.611 575.251 667.373 575.251C665.118 575.251 663.267 576.336 661.82 578.507C660.373 580.678 659.304 584.22 658.615 589.133C657.942 593.962 658.026 597.437 658.867 599.557C659.708 601.66 661.265 602.712 663.536 602.712ZM681.269 607.281L681.723 603.999L681.976 602.308C682.279 600.138 682.977 598.303 684.071 596.806C685.181 595.308 686.511 594.03 688.059 592.969C689.607 591.893 691.23 590.933 692.93 590.092C694.646 589.251 696.262 588.418 697.776 587.593C699.29 586.752 700.569 585.818 701.613 584.792C702.656 583.748 703.278 582.495 703.48 581.031C703.716 579.399 703.354 578.069 702.395 577.043C701.453 576 700.039 575.478 698.155 575.478C696.842 575.478 695.631 575.747 694.52 576.286C693.426 576.824 692.484 577.607 691.693 578.633C690.902 579.643 690.322 580.871 689.952 582.318H684.096C684.433 580.097 685.223 578.078 686.469 576.261C687.731 574.443 689.413 572.996 691.517 571.919C693.637 570.826 696.152 570.279 699.063 570.279C701.604 570.279 703.733 570.733 705.449 571.642C707.165 572.533 708.411 573.787 709.185 575.402C709.959 577.001 710.186 578.869 709.866 581.006C709.563 583.176 708.873 585.002 707.796 586.483C706.719 587.947 705.415 589.183 703.884 590.193C702.37 591.203 700.78 592.103 699.114 592.894C697.465 593.668 695.891 594.442 694.394 595.216C692.913 595.99 691.668 596.873 690.658 597.866C689.649 598.842 689.043 600.053 688.841 601.501L688.765 602.031H706.989L706.231 607.281H681.269ZM724.105 607.836C719.999 607.836 717.004 606.246 715.119 603.065C713.235 599.885 712.713 595.249 713.554 589.158C714.143 585.052 715.17 581.603 716.634 578.81C718.097 576 719.915 573.88 722.085 572.449C724.273 571.002 726.721 570.279 729.43 570.279C733.469 570.279 736.439 571.886 738.34 575.099C740.241 578.297 740.763 582.966 739.905 589.108C739.047 595.216 737.221 599.868 734.428 603.065C731.635 606.246 728.193 607.836 724.105 607.836ZM724.862 602.712C727.133 602.712 728.959 601.66 730.339 599.557C731.735 597.454 732.779 593.979 733.469 589.133C734.159 584.186 734.091 580.635 733.267 578.482C732.459 576.328 730.936 575.251 728.698 575.251C726.443 575.251 724.593 576.336 723.145 578.507C721.698 580.678 720.63 584.22 719.94 589.133C719.267 593.962 719.351 597.437 720.192 599.557C721.034 601.66 722.59 602.712 724.862 602.712Z" fill="white"/>
<path d="M313.195 507.447C313.408 507.693 313.497 508.016 313.438 508.337C313.38 508.657 313.182 508.929 312.896 509.08C312.348 509.371 311.769 509.632 310.721 509.632C309.591 509.632 309 509.32 308.479 509.046C308.016 508.803 307.651 508.611 306.842 508.611H305.548V514.013C305.548 514.594 305.079 515.069 304.502 515.069H301.435C300.858 515.069 300.389 514.594 300.389 514.013V508.611H299.089C298.281 508.611 297.916 508.803 297.454 509.046C296.933 509.32 296.342 509.632 295.212 509.632C294.178 509.632 293.598 509.373 293.048 509.086C292.758 508.934 292.559 508.662 292.498 508.34C292.439 508.02 292.527 507.695 292.74 507.449L296.177 503.514C295.312 503.539 294.619 503.34 294.052 502.892C293.823 502.712 293.677 502.442 293.649 502.151C293.623 501.863 293.716 501.573 293.905 501.356L297.381 497.376C297.244 497.39 297.096 497.399 296.935 497.399H295.523C295.106 497.399 294.741 497.161 294.57 496.777C294.398 496.394 294.463 495.96 294.738 495.644L302.184 487.117C302.383 486.89 302.669 486.76 302.969 486.76C302.969 486.76 302.969 486.76 302.97 486.76C303.27 486.76 303.555 486.89 303.754 487.118L311.199 495.644C311.475 495.96 311.539 496.394 311.367 496.777C311.196 497.161 310.831 497.399 310.415 497.399H308.999C308.839 497.399 308.693 497.391 308.556 497.377L312.134 501.474C312.371 501.745 312.453 502.115 312.356 502.463C312.257 502.809 311.994 503.079 311.653 503.183L311.513 503.227C311.037 503.375 310.495 503.539 309.76 503.514L313.194 507.446C313.194 507.447 313.195 507.447 313.195 507.447ZM391.853 507.446L388.418 503.514C389.176 503.534 389.694 503.375 390.169 503.227L390.311 503.183C390.653 503.079 390.914 502.81 391.013 502.464C391.111 502.116 391.029 501.746 390.793 501.474L387.214 497.377C387.35 497.391 387.497 497.399 387.657 497.399H389.072C389.489 497.399 389.854 497.16 390.026 496.777C390.197 496.393 390.132 495.959 389.857 495.644L382.411 487.118C382.015 486.662 381.236 486.664 380.842 487.117L373.397 495.644C373.121 495.959 373.056 496.393 373.228 496.777C373.399 497.16 373.764 497.399 374.18 497.399H375.592C375.754 497.399 375.903 497.39 376.04 497.376L372.564 501.356C372.374 501.574 372.28 501.865 372.307 502.153C372.335 502.443 372.483 502.713 372.709 502.892C373.276 503.34 373.979 503.552 374.834 503.514L371.399 507.449C371.186 507.693 371.097 508.017 371.156 508.338C371.215 508.661 371.415 508.933 371.705 509.086C372.257 509.373 372.837 509.632 373.87 509.632C375.001 509.632 375.591 509.32 376.112 509.046C376.574 508.803 376.939 508.611 377.747 508.611H379.046V514.013C379.046 514.594 379.516 515.069 380.092 515.069H383.16C383.736 515.069 384.206 514.594 384.206 514.013V508.611H385.5C386.309 508.611 386.674 508.803 387.136 509.046C387.657 509.32 388.249 509.632 389.379 509.632C390.426 509.632 391.005 509.371 391.552 509.081C391.838 508.93 392.037 508.658 392.097 508.338C392.156 508.017 392.066 507.693 391.854 507.447C391.853 507.447 391.853 507.447 391.853 507.446ZM418.073 507.447C418.072 507.447 418.072 507.447 418.072 507.446L414.637 503.514C415.396 503.534 415.912 503.375 416.388 503.227L416.53 503.183C416.872 503.079 417.133 502.81 417.232 502.464C417.331 502.116 417.249 501.746 417.012 501.474L413.434 497.377C413.569 497.391 413.716 497.399 413.876 497.399H415.291C415.708 497.399 416.073 497.16 416.245 496.777C416.416 496.393 416.351 495.959 416.076 495.644L408.63 487.118C408.236 486.662 407.455 486.664 407.062 487.117L399.616 495.644C399.341 495.959 399.275 496.393 399.447 496.777C399.618 497.16 399.983 497.399 400.399 497.399H401.812C401.973 497.399 402.123 497.39 402.26 497.376L398.784 501.356C398.593 501.574 398.5 501.865 398.526 502.153C398.555 502.443 398.702 502.713 398.928 502.892C399.496 503.34 400.206 503.552 401.054 503.514L397.619 507.449C397.405 507.693 397.317 508.017 397.375 508.338C397.434 508.661 397.634 508.933 397.925 509.086C398.476 509.373 399.056 509.632 400.09 509.632C401.22 509.632 401.81 509.32 402.331 509.046C402.793 508.803 403.158 508.611 403.966 508.611H405.266V514.013C405.266 514.594 405.735 515.069 406.312 515.069H409.379C409.955 515.069 410.425 514.594 410.425 514.013V508.611H411.719C412.528 508.611 412.893 508.803 413.355 509.046C413.876 509.32 414.468 509.632 415.598 509.632C416.646 509.632 417.224 509.371 417.771 509.081C418.058 508.93 418.256 508.658 418.316 508.338C418.375 508.017 418.286 507.693 418.073 507.447ZM365.633 507.446L362.198 503.514C362.954 503.534 363.475 503.375 363.95 503.227L364.092 503.183C364.434 503.079 364.695 502.81 364.793 502.464C364.892 502.116 364.81 501.746 364.573 501.474L360.995 497.377C361.131 497.391 361.278 497.399 361.438 497.399H362.853C363.27 497.399 363.635 497.16 363.806 496.777C363.978 496.393 363.913 495.959 363.637 495.644L356.192 487.118C355.994 486.89 355.708 486.76 355.409 486.76C355.408 486.76 355.407 486.76 355.407 486.76C355.107 486.76 354.822 486.89 354.623 487.117L347.177 495.644C346.901 495.96 346.837 496.394 347.008 496.777C347.18 497.161 347.545 497.399 347.962 497.399H349.374C349.535 497.399 349.683 497.39 349.82 497.376L346.345 501.356C346.154 501.573 346.062 501.863 346.088 502.151C346.115 502.442 346.262 502.712 346.491 502.892C347.058 503.34 347.749 503.539 348.616 503.514L345.179 507.449C344.966 507.695 344.877 508.02 344.937 508.34C344.997 508.662 345.197 508.934 345.486 509.086C346.037 509.373 346.617 509.632 347.651 509.632C348.781 509.632 349.372 509.32 349.893 509.046C350.354 508.803 350.719 508.611 351.528 508.611H352.828V514.013C352.828 514.594 353.297 515.069 353.874 515.069H356.94C357.517 515.069 357.986 514.594 357.986 514.013V508.611H359.281C360.09 508.611 360.455 508.803 360.917 509.046C361.438 509.32 362.029 509.632 363.16 509.632C364.207 509.632 364.786 509.371 365.332 509.081C365.619 508.93 365.818 508.658 365.878 508.338C365.937 508.017 365.847 507.693 365.635 507.447C365.633 507.447 365.633 507.447 365.633 507.446ZM339.413 507.446L335.98 503.514C336.703 503.539 337.256 503.375 337.732 503.227L337.873 503.183C338.214 503.079 338.476 502.809 338.575 502.463C338.673 502.115 338.59 501.745 338.353 501.474L334.776 497.377C334.912 497.391 335.059 497.399 335.219 497.399H336.634C337.05 497.399 337.416 497.161 337.586 496.777C337.758 496.394 337.694 495.96 337.418 495.644L329.973 487.118C329.774 486.89 329.489 486.76 329.189 486.76C329.189 486.76 329.188 486.76 329.188 486.76C328.888 486.76 328.602 486.89 328.403 487.117L320.957 495.644C320.682 495.96 320.618 496.394 320.789 496.777C320.961 497.161 321.326 497.399 321.742 497.399H323.154C323.316 497.399 323.464 497.39 323.6 497.376L320.125 501.356C319.935 501.573 319.842 501.863 319.869 502.151C319.896 502.442 320.043 502.712 320.271 502.892C320.838 503.34 321.53 503.539 322.396 503.514L318.96 507.449C318.746 507.695 318.658 508.02 318.718 508.34C318.778 508.662 318.978 508.934 319.267 509.086C319.817 509.373 320.397 509.632 321.432 509.632C322.562 509.632 323.152 509.32 323.673 509.046C324.135 508.803 324.5 508.611 325.308 508.611H326.608V514.013C326.608 514.594 327.078 515.069 327.654 515.069H330.721C331.298 515.069 331.767 514.594 331.767 514.013V508.611H333.061C333.871 508.611 334.235 508.803 334.698 509.046C335.219 509.32 335.81 509.632 336.94 509.632C337.988 509.632 338.567 509.371 339.116 509.08C339.401 508.929 339.599 508.657 339.657 508.337C339.716 508.016 339.627 507.693 339.414 507.447C339.414 507.447 339.413 507.447 339.413 507.446Z" fill="white"/>
<path d="M444.5 507.447C444.713 507.693 444.802 508.016 444.743 508.337C444.685 508.657 444.487 508.929 444.201 509.08C443.653 509.371 443.074 509.632 442.026 509.632C440.896 509.632 440.305 509.32 439.784 509.046C439.321 508.803 438.956 508.611 438.147 508.611H436.853V514.013C436.853 514.594 436.384 515.069 435.807 515.069H432.74C432.163 515.069 431.694 514.594 431.694 514.013V508.611H430.394C429.586 508.611 429.221 508.803 428.759 509.046C428.238 509.32 427.647 509.632 426.518 509.632C425.483 509.632 424.903 509.373 424.353 509.086C424.063 508.934 423.864 508.662 423.803 508.34C423.744 508.02 423.832 507.695 424.045 507.449L427.482 503.514C426.617 503.539 425.924 503.34 425.357 502.892C425.128 502.712 424.982 502.442 424.954 502.151C424.928 501.863 425.021 501.573 425.21 501.356L428.686 497.376C428.549 497.39 428.401 497.399 428.24 497.399H426.828C426.411 497.399 426.046 497.161 425.875 496.777C425.703 496.394 425.768 495.96 426.043 495.644L433.489 487.117C433.688 486.89 433.974 486.76 434.274 486.76C434.274 486.76 434.275 486.76 434.275 486.76C434.575 486.76 434.86 486.89 435.059 487.118L442.504 495.644C442.78 495.96 442.844 496.394 442.672 496.777C442.501 497.161 442.136 497.399 441.72 497.399H440.304C440.144 497.399 439.998 497.391 439.861 497.377L443.439 501.474C443.676 501.745 443.759 502.115 443.661 502.463C443.562 502.809 443.3 503.079 442.958 503.183L442.818 503.227C442.342 503.375 441.8 503.539 441.066 503.514L444.499 507.446C444.499 507.447 444.5 507.447 444.5 507.447ZM523.158 507.446L519.723 503.514C520.481 503.534 520.999 503.375 521.474 503.227L521.616 503.183C521.958 503.079 522.219 502.81 522.318 502.464C522.416 502.116 522.334 501.746 522.098 501.474L518.519 497.377C518.655 497.391 518.802 497.399 518.962 497.399H520.377C520.794 497.399 521.159 497.16 521.331 496.777C521.502 496.393 521.437 495.959 521.162 495.644L513.716 487.118C513.32 486.662 512.541 486.664 512.148 487.117L504.702 495.644C504.426 495.959 504.361 496.393 504.533 496.777C504.704 497.16 505.069 497.399 505.485 497.399H506.897C507.059 497.399 507.208 497.39 507.345 497.376L503.87 501.356C503.679 501.574 503.585 501.865 503.612 502.153C503.64 502.443 503.788 502.713 504.014 502.892C504.581 503.34 505.284 503.552 506.139 503.514L502.705 507.449C502.491 507.693 502.402 508.017 502.461 508.338C502.52 508.661 502.72 508.933 503.01 509.086C503.562 509.373 504.142 509.632 505.175 509.632C506.306 509.632 506.896 509.32 507.417 509.046C507.879 508.803 508.244 508.611 509.052 508.611H510.351V514.013C510.351 514.594 510.821 515.069 511.397 515.069H514.465C515.041 515.069 515.511 514.594 515.511 514.013V508.611H516.805C517.614 508.611 517.979 508.803 518.441 509.046C518.962 509.32 519.554 509.632 520.684 509.632C521.731 509.632 522.31 509.371 522.857 509.081C523.144 508.93 523.342 508.658 523.402 508.338C523.461 508.017 523.371 507.693 523.159 507.447C523.158 507.447 523.158 507.447 523.158 507.446ZM549.378 507.447C549.377 507.447 549.377 507.447 549.377 507.446L545.942 503.514C546.701 503.534 547.217 503.375 547.693 503.227L547.835 503.183C548.177 503.079 548.438 502.81 548.537 502.464C548.636 502.116 548.554 501.746 548.317 501.474L544.739 497.377C544.874 497.391 545.022 497.399 545.182 497.399H546.596C547.014 497.399 547.378 497.16 547.55 496.777C547.722 496.393 547.656 495.959 547.381 495.644L539.935 487.118C539.541 486.662 538.76 486.664 538.367 487.117L530.921 495.644C530.646 495.959 530.58 496.393 530.752 496.777C530.924 497.16 531.288 497.399 531.704 497.399H533.117C533.278 497.399 533.428 497.39 533.565 497.376L530.089 501.356C529.898 501.574 529.805 501.865 529.831 502.153C529.86 502.443 530.007 502.713 530.233 502.892C530.801 503.34 531.511 503.552 532.359 503.514L528.924 507.449C528.71 507.693 528.622 508.017 528.681 508.338C528.739 508.661 528.939 508.933 529.23 509.086C529.782 509.373 530.361 509.632 531.395 509.632C532.525 509.632 533.115 509.32 533.636 509.046C534.099 508.803 534.463 508.611 535.271 508.611H536.571V514.013C536.571 514.594 537.04 515.069 537.617 515.069H540.684C541.26 515.069 541.73 514.594 541.73 514.013V508.611H543.024C543.833 508.611 544.198 508.803 544.66 509.046C545.182 509.32 545.773 509.632 546.903 509.632C547.951 509.632 548.529 509.371 549.076 509.081C549.363 508.93 549.561 508.658 549.621 508.338C549.68 508.017 549.591 507.693 549.378 507.447ZM496.938 507.446L493.503 503.514C494.259 503.534 494.78 503.375 495.255 503.227L495.397 503.183C495.739 503.079 496 502.81 496.098 502.464C496.197 502.116 496.115 501.746 495.878 501.474L492.3 497.377C492.436 497.391 492.583 497.399 492.743 497.399H494.158C494.575 497.399 494.94 497.16 495.111 496.777C495.283 496.393 495.218 495.959 494.942 495.644L487.497 487.118C487.299 486.89 487.013 486.76 486.714 486.76C486.713 486.76 486.712 486.76 486.712 486.76C486.412 486.76 486.127 486.89 485.928 487.117L478.482 495.644C478.207 495.96 478.142 496.394 478.313 496.777C478.485 497.161 478.85 497.399 479.267 497.399H480.679C480.84 497.399 480.988 497.39 481.125 497.376L477.65 501.356C477.46 501.573 477.367 501.863 477.393 502.151C477.42 502.442 477.567 502.712 477.796 502.892C478.363 503.34 479.054 503.539 479.921 503.514L476.484 507.449C476.271 507.695 476.182 508.02 476.242 508.34C476.302 508.662 476.502 508.934 476.791 509.086C477.342 509.373 477.922 509.632 478.956 509.632C480.086 509.632 480.677 509.32 481.198 509.046C481.659 508.803 482.024 508.611 482.833 508.611H484.133V514.013C484.133 514.594 484.602 515.069 485.179 515.069H488.246C488.822 515.069 489.291 514.594 489.291 514.013V508.611H490.586C491.395 508.611 491.76 508.803 492.222 509.046C492.743 509.32 493.334 509.632 494.465 509.632C495.512 509.632 496.091 509.371 496.637 509.081C496.924 508.93 497.123 508.658 497.183 508.338C497.242 508.017 497.152 507.693 496.94 507.447C496.938 507.447 496.938 507.447 496.938 507.446ZM470.718 507.446L467.285 503.514C468.008 503.539 468.561 503.375 469.037 503.227L469.178 503.183C469.519 503.079 469.781 502.809 469.88 502.463C469.978 502.115 469.895 501.745 469.658 501.474L466.081 497.377C466.217 497.391 466.364 497.399 466.524 497.399H467.939C468.355 497.399 468.721 497.161 468.892 496.777C469.063 496.394 468.999 495.96 468.723 495.644L461.278 487.118C461.079 486.89 460.794 486.76 460.494 486.76C460.494 486.76 460.493 486.76 460.493 486.76C460.193 486.76 459.907 486.89 459.708 487.117L452.262 495.644C451.987 495.96 451.923 496.394 452.094 496.777C452.266 497.161 452.631 497.399 453.047 497.399H454.459C454.621 497.399 454.769 497.39 454.906 497.376L451.43 501.356C451.24 501.573 451.147 501.863 451.174 502.151C451.201 502.442 451.348 502.712 451.576 502.892C452.143 503.34 452.835 503.539 453.701 503.514L450.265 507.449C450.052 507.695 449.963 508.02 450.023 508.34C450.083 508.662 450.283 508.934 450.572 509.086C451.122 509.373 451.702 509.632 452.737 509.632C453.867 509.632 454.457 509.32 454.979 509.046C455.44 508.803 455.805 508.611 456.613 508.611H457.913V514.013C457.913 514.594 458.383 515.069 458.959 515.069H462.026C462.603 515.069 463.072 514.594 463.072 514.013V508.611H464.367C465.176 508.611 465.54 508.803 466.003 509.046C466.524 509.32 467.115 509.632 468.245 509.632C469.294 509.632 469.872 509.371 470.421 509.08C470.706 508.929 470.904 508.657 470.962 508.337C471.021 508.016 470.932 507.693 470.719 507.447C470.719 507.447 470.718 507.447 470.718 507.446Z" fill="white"/>
<path d="M846.146 507.425C846.359 507.67 846.448 507.993 846.389 508.314C846.331 508.635 846.133 508.906 845.848 509.057C845.299 509.348 844.721 509.609 843.672 509.609C842.542 509.609 841.951 509.298 841.43 509.024C840.968 508.781 840.603 508.588 839.794 508.588H838.499V513.99C838.499 514.572 838.03 515.046 837.453 515.046H834.387C833.81 515.046 833.341 514.572 833.341 513.99V508.588H832.041C831.232 508.588 830.867 508.781 830.406 509.024C829.885 509.298 829.294 509.609 828.164 509.609C827.13 509.609 826.55 509.351 825.999 509.064C825.71 508.911 825.51 508.64 825.45 508.318C825.39 507.997 825.479 507.673 825.692 507.426L829.129 503.491C828.264 503.517 827.571 503.318 827.003 502.869C826.775 502.69 826.628 502.419 826.601 502.129C826.575 501.841 826.667 501.551 826.857 501.334L830.333 497.353C830.196 497.368 830.048 497.376 829.887 497.376H828.474C828.058 497.376 827.693 497.138 827.521 496.755C827.35 496.372 827.414 495.937 827.69 495.622L835.136 487.095C835.335 486.867 835.62 486.737 835.92 486.737C835.92 486.737 835.921 486.737 835.922 486.737C836.221 486.737 836.507 486.868 836.705 487.095L844.15 495.622C844.426 495.938 844.49 496.372 844.319 496.755C844.148 497.138 843.782 497.376 843.366 497.376H841.951C841.791 497.376 841.644 497.368 841.508 497.354L845.086 501.451C845.322 501.723 845.405 502.092 845.307 502.44C845.208 502.786 844.946 503.057 844.605 503.16L844.465 503.204C843.988 503.353 843.446 503.517 842.712 503.491L846.146 507.423C846.146 507.425 846.146 507.425 846.146 507.425ZM924.804 507.423L921.369 503.491C922.127 503.512 922.646 503.353 923.121 503.204L923.263 503.16C923.604 503.057 923.866 502.788 923.964 502.441C924.063 502.094 923.981 501.724 923.744 501.451L920.166 497.354C920.301 497.368 920.449 497.376 920.609 497.376H922.023C922.441 497.376 922.806 497.137 922.977 496.754C923.149 496.371 923.083 495.937 922.808 495.622L915.362 487.095C914.967 486.639 914.187 486.642 913.794 487.095L906.348 495.621C906.073 495.937 906.008 496.371 906.179 496.754C906.351 497.137 906.716 497.376 907.132 497.376H908.544C908.705 497.376 908.855 497.368 908.992 497.353L905.516 501.334C905.325 501.551 905.232 501.842 905.259 502.13C905.287 502.421 905.434 502.691 905.661 502.869C906.228 503.318 906.931 503.53 907.786 503.491L904.351 507.426C904.137 507.67 904.049 507.995 904.108 508.315C904.167 508.638 904.366 508.91 904.657 509.064C905.209 509.351 905.789 509.609 906.822 509.609C907.952 509.609 908.542 509.298 909.063 509.024C909.526 508.781 909.891 508.588 910.698 508.588H911.998V513.99C911.998 514.572 912.468 515.046 913.044 515.046H916.111C916.687 515.046 917.157 514.572 917.157 513.99V508.588H918.451C919.261 508.588 919.625 508.781 920.088 509.024C920.609 509.298 921.2 509.609 922.331 509.609C923.378 509.609 923.957 509.348 924.503 509.059C924.79 508.907 924.988 508.636 925.049 508.315C925.107 507.995 925.018 507.67 924.805 507.425C924.804 507.425 924.804 507.425 924.804 507.423ZM951.025 507.425C951.023 507.425 951.023 507.425 951.023 507.423L947.588 503.491C948.348 503.512 948.864 503.353 949.34 503.204L949.482 503.16C949.824 503.057 950.085 502.788 950.183 502.441C950.282 502.094 950.2 501.724 949.963 501.451L946.385 497.354C946.521 497.368 946.668 497.376 946.828 497.376H948.243C948.66 497.376 949.025 497.137 949.196 496.754C949.368 496.371 949.303 495.937 949.027 495.622L941.582 487.095C941.187 486.639 940.406 486.642 940.013 487.095L932.567 495.621C932.292 495.937 932.227 496.371 932.398 496.754C932.57 497.137 932.935 497.376 933.351 497.376H934.763C934.924 497.376 935.074 497.368 935.211 497.353L931.735 501.334C931.544 501.551 931.451 501.842 931.478 502.13C931.506 502.421 931.653 502.691 931.88 502.869C932.447 503.318 933.158 503.53 934.005 503.491L930.57 507.426C930.356 507.67 930.268 507.995 930.327 508.315C930.386 508.638 930.586 508.91 930.876 509.064C931.428 509.351 932.008 509.609 933.041 509.609C934.172 509.609 934.762 509.298 935.283 509.024C935.745 508.781 936.11 508.588 936.918 508.588H938.217V513.99C938.217 514.572 938.687 515.046 939.263 515.046H942.33C942.907 515.046 943.376 514.572 943.376 513.99V508.588H944.671C945.48 508.588 945.845 508.781 946.307 509.024C946.828 509.298 947.419 509.609 948.55 509.609C949.597 509.609 950.176 509.348 950.722 509.059C951.009 508.907 951.208 508.636 951.268 508.315C951.327 507.995 951.237 507.67 951.025 507.425ZM898.585 507.423L895.15 503.491C895.905 503.512 896.426 503.353 896.901 503.204L897.043 503.16C897.385 503.057 897.646 502.788 897.745 502.441C897.843 502.094 897.762 501.724 897.525 501.451L893.946 497.354C894.082 497.368 894.229 497.376 894.389 497.376H895.804C896.221 497.376 896.586 497.137 896.758 496.754C896.929 496.371 896.864 495.937 896.589 495.622L889.144 487.095C888.945 486.868 888.66 486.737 888.36 486.737C888.359 486.737 888.359 486.737 888.359 486.737C888.059 486.737 887.773 486.867 887.574 487.095L880.128 495.622C879.853 495.937 879.788 496.372 879.96 496.755C880.131 497.138 880.496 497.376 880.913 497.376H882.325C882.486 497.376 882.634 497.368 882.771 497.353L879.296 501.334C879.106 501.551 879.013 501.841 879.039 502.129C879.067 502.419 879.213 502.69 879.442 502.869C880.009 503.318 880.7 503.517 881.567 503.491L878.13 507.426C877.917 507.673 877.829 507.997 877.888 508.318C877.949 508.64 878.148 508.911 878.438 509.064C878.988 509.351 879.568 509.609 880.603 509.609C881.732 509.609 882.323 509.298 882.844 509.024C883.306 508.781 883.671 508.588 884.479 508.588H885.779V513.99C885.779 514.572 886.248 515.046 886.825 515.046H889.892C890.468 515.046 890.938 514.572 890.938 513.99V508.588H892.232C893.041 508.588 893.406 508.781 893.868 509.024C894.389 509.298 894.981 509.609 896.111 509.609C897.159 509.609 897.737 509.348 898.284 509.059C898.571 508.907 898.769 508.636 898.829 508.315C898.888 507.995 898.799 507.67 898.586 507.425C898.585 507.425 898.585 507.425 898.585 507.423ZM872.365 507.423L868.931 503.491C869.655 503.517 870.208 503.353 870.684 503.204L870.824 503.16C871.165 503.057 871.428 502.786 871.526 502.44C871.624 502.092 871.542 501.723 871.305 501.451L867.727 497.354C867.864 497.368 868.01 497.376 868.17 497.376H869.585C870.002 497.376 870.367 497.138 870.538 496.755C870.709 496.372 870.645 495.938 870.37 495.622L862.924 487.095C862.726 486.868 862.44 486.737 862.141 486.737C862.14 486.737 862.14 486.737 862.14 486.737C861.839 486.737 861.554 486.867 861.355 487.095L853.909 495.622C853.634 495.937 853.569 496.372 853.741 496.755C853.912 497.138 854.277 497.376 854.694 497.376H856.106C856.267 497.376 856.415 497.368 856.552 497.353L853.076 501.334C852.887 501.551 852.794 501.841 852.82 502.129C852.848 502.419 852.994 502.69 853.223 502.869C853.79 503.318 854.482 503.517 855.348 503.491L851.911 507.426C851.698 507.673 851.61 507.997 851.669 508.318C851.729 508.64 851.929 508.911 852.218 509.064C852.769 509.351 853.349 509.609 854.383 509.609C855.513 509.609 856.104 509.298 856.625 509.024C857.086 508.781 857.451 508.588 858.26 508.588H859.56V513.99C859.56 514.572 860.029 515.046 860.606 515.046H863.673C864.249 515.046 864.719 514.572 864.719 513.99V508.588H866.013C866.822 508.588 867.187 508.781 867.65 509.024C868.171 509.298 868.762 509.609 869.891 509.609C870.94 509.609 871.519 509.348 872.067 509.057C872.353 508.906 872.55 508.635 872.609 508.314C872.668 507.993 872.579 507.67 872.365 507.425C872.365 507.425 872.365 507.425 872.365 507.423Z" fill="white"/>
<path d="M772.852 505.359H750.676C747.989 505.359 745.802 507.567 745.802 510.28C745.802 512.994 747.989 515.201 750.676 515.201H772.852C775.54 515.201 777.725 512.994 777.725 510.28C777.725 507.567 775.539 505.359 772.852 505.359ZM747.526 510.28C747.526 508.525 748.939 507.098 750.676 507.098C752.414 507.098 753.827 508.526 753.827 510.28C753.827 512.034 752.414 513.462 750.676 513.462C748.939 513.462 747.526 512.034 747.526 510.28ZM772.852 513.462C771.114 513.462 769.7 512.034 769.7 510.28C769.7 508.525 771.114 507.098 772.852 507.098C774.589 507.098 776.002 508.526 776.002 510.28C776.002 512.034 774.588 513.462 772.852 513.462Z" fill="white"/>
<path d="M750.676 512.361C751.814 512.361 752.737 511.429 752.737 510.28C752.737 509.132 751.814 508.2 750.676 508.2C749.538 508.2 748.616 509.132 748.616 510.28C748.616 511.429 749.538 512.361 750.676 512.361Z" fill="white"/>
<path d="M772.852 512.361C773.989 512.361 774.912 511.429 774.912 510.28C774.912 509.132 773.989 508.2 772.852 508.2C771.714 508.2 770.791 509.132 770.791 510.28C770.791 511.429 771.714 512.361 772.852 512.361Z" fill="white"/>
<path d="M778.503 494.997H765.117V501.494H764.08V484.969L751.476 482.421L751.975 487.788L738.363 472.522L733.907 476.379L735.682 488.883C735.643 488.889 735.605 488.895 735.567 488.902L723.851 480.394C723.164 479.895 722.208 480.053 721.714 480.746C721.22 481.44 721.376 482.406 722.063 482.905L729.981 488.655L723.08 485.102C722.326 484.713 721.404 485.016 721.02 485.777C720.636 486.537 720.935 487.469 721.688 487.857L722.21 488.125C721.827 488.276 721.504 488.581 721.341 488.999C721.032 489.794 721.419 490.691 722.206 491.004L731.194 494.569C731.306 496.058 732.024 497.418 733.203 498.35L734.544 496.619L734.487 496.581C733.708 495.965 733.262 495.04 733.262 494.042C733.262 492.266 734.693 490.821 736.452 490.821H736.561L736.658 490.873L741.702 493.59L741.666 493.331C741.355 491.311 739.916 489.664 738.022 489.066L739.83 479.026L752.221 497.885L751.035 503.303C751.035 504.05 751.64 504.66 752.379 504.66H778.501C779.241 504.66 779.846 504.05 779.846 503.303V496.355C779.847 495.608 779.242 494.997 778.503 494.997ZM760.533 495.147H756.059V489.588H760.533V495.147Z" fill="white"/>
<path d="M740.026 498.073C739.801 498.282 739.556 498.474 739.292 498.644L739.204 498.696C738.993 498.806 738.26 499.169 737.669 499.23L737.452 497.05L735.713 496.36L735.015 495.878C734.455 495.43 734.135 494.762 734.135 494.041C734.135 492.786 735.119 491.758 736.348 491.703L748 497.988C748.465 498.25 748.779 498.75 748.779 499.325C748.779 500.169 748.102 500.853 747.265 500.853C747.086 500.853 746.913 500.822 746.753 500.764L740.026 498.073Z" fill="white"/>
<path d="M692.9 510.136C691.443 510.136 690.257 511.335 690.257 512.805C690.257 514.276 691.443 515.474 692.9 515.474C694.356 515.474 695.543 514.276 695.543 512.805C695.543 511.335 694.356 510.136 692.9 510.136ZM692.9 514.82C691.767 514.82 690.904 513.894 690.904 512.805C690.904 511.716 691.821 510.79 692.9 510.79C693.978 510.79 694.895 511.716 694.895 512.805C694.895 513.894 694.032 514.82 692.9 514.82Z" fill="white"/>
<path d="M697.592 510.136C696.136 510.136 694.949 511.335 694.949 512.805C694.949 514.276 696.136 515.474 697.592 515.474C699.049 515.474 700.235 514.276 700.235 512.805C700.235 511.335 699.049 510.136 697.592 510.136ZM697.592 514.82C696.46 514.82 695.597 513.894 695.597 512.805C695.597 511.716 696.514 510.79 697.592 510.79C698.671 510.79 699.588 511.716 699.588 512.805C699.588 513.894 698.725 514.82 697.592 514.82Z" fill="white"/>
<path d="M702.231 510.136C700.774 510.136 699.588 511.335 699.588 512.805C699.588 514.276 700.774 515.474 702.231 515.474C703.687 515.474 704.874 514.276 704.874 512.805C704.874 511.335 703.687 510.136 702.231 510.136ZM702.231 514.82C701.098 514.82 700.235 513.894 700.235 512.805C700.235 511.716 701.152 510.79 702.231 510.79C703.309 510.79 704.226 511.716 704.226 512.805C704.226 513.894 703.363 514.82 702.231 514.82Z" fill="white"/>
<path d="M699.966 506.106C698.509 506.106 697.323 507.305 697.323 508.775C697.323 510.245 698.509 511.444 699.966 511.444C701.422 511.444 702.608 510.245 702.608 508.775C702.608 507.305 701.368 506.106 699.966 506.106ZM699.966 510.79C698.833 510.79 697.97 509.864 697.97 508.775C697.97 507.686 698.887 506.76 699.966 506.76C701.044 506.76 701.961 507.686 701.961 508.775C701.961 509.864 701.044 510.79 699.966 510.79Z" fill="white"/>
<path d="M697.592 501.967C696.136 501.967 694.949 503.166 694.949 504.636C694.949 506.106 696.136 507.305 697.592 507.305C699.049 507.305 700.235 506.106 700.235 504.636C700.235 503.166 699.049 501.967 697.592 501.967ZM697.592 506.651C696.46 506.651 695.597 505.725 695.597 504.636C695.597 503.492 696.514 502.621 697.592 502.621C698.671 502.621 699.588 503.547 699.588 504.636C699.588 505.78 698.725 506.651 697.592 506.651Z" fill="white"/>
<path d="M695.273 506.106C693.817 506.106 692.63 507.305 692.63 508.775C692.63 510.245 693.817 511.444 695.273 511.444C696.729 511.444 697.916 510.245 697.916 508.775C697.916 507.305 696.729 506.106 695.273 506.106ZM695.273 510.79C694.14 510.79 693.277 509.864 693.277 508.775C693.277 507.686 694.194 506.76 695.273 506.76C696.352 506.76 697.269 507.686 697.269 508.775C697.269 509.864 696.406 510.79 695.273 510.79Z" fill="white"/>
<path d="M697.592 506.706C696.46 506.706 695.543 505.78 695.543 504.636C695.543 503.492 696.46 502.566 697.592 502.566C697.646 502.566 697.7 502.566 697.754 502.566V501.967H667.01V506.052H664.799V510.137H662.156V515.419H692.9V514.82C691.767 514.82 690.85 513.894 690.85 512.751C690.85 511.607 691.767 510.681 692.9 510.681C693.493 510.681 693.978 510.899 694.356 511.335H695.543V510.736C695.435 510.736 695.381 510.736 695.273 510.736C694.14 510.736 693.223 509.81 693.223 508.666C693.223 507.522 694.14 506.597 695.273 506.597C695.812 506.597 696.352 506.814 696.729 507.196H697.754V506.597C697.7 506.706 697.646 506.706 697.592 506.706Z" fill="white"/>
<path d="M662.156 515.474C663.615 515.474 664.799 514.279 664.799 512.805C664.799 511.331 663.615 510.136 662.156 510.136C660.696 510.136 659.513 511.331 659.513 512.805C659.513 514.279 660.696 515.474 662.156 515.474Z" fill="white"/>
<path d="M664.799 511.444C666.258 511.444 667.442 510.249 667.442 508.775C667.442 507.301 666.258 506.106 664.799 506.106C663.339 506.106 662.156 507.301 662.156 508.775C662.156 510.249 663.339 511.444 664.799 511.444Z" fill="white"/>
<path d="M667.064 507.305C668.524 507.305 669.707 506.11 669.707 504.636C669.707 503.162 668.524 501.967 667.064 501.967C665.604 501.967 664.421 503.162 664.421 504.636C664.421 506.11 665.604 507.305 667.064 507.305Z" fill="white"/>
<path d="M702.231 514.82H692.253V515.42H702.231V514.82Z" fill="white"/>
<path d="M695.111 513.622L694.302 514.984H696.352L695.111 513.622Z" fill="white"/>
<path d="M699.858 513.731L698.833 514.984H700.936L699.858 513.731Z" fill="white"/>
<path fill-rule="evenodd" clip-rule="evenodd" d="M586.609 510.736L582.685 514.75H590.563L586.609 510.736V510.736ZM602.456 498.633V514.75H617.517V483.257C617.517 481.157 616.672 479.212 615.284 477.822C613.925 476.433 612.054 475.568 609.971 475.568C607.919 475.568 606.017 476.433 604.659 477.822C603.301 479.212 602.456 481.157 602.456 483.257V491.717L606.349 497.398C606.591 497.737 606.53 498.231 606.168 498.509C606.017 498.602 605.866 498.633 605.715 498.633H602.456V498.633ZM584.073 495.576H589.175V492.056H584.073V495.576ZM593.219 503.666V514.75H600.886V497.861C600.886 497.398 601.248 497.058 601.671 497.058H604.236L597.294 486.993L586.609 481.003L575.924 486.993L569.012 497.058H571.547C572 497.058 572.332 497.398 572.332 497.861V514.75H580.029V503.666C580.029 503.233 580.361 502.863 580.814 502.863H592.434C592.857 502.863 593.219 503.233 593.219 503.666V503.666ZM589.929 497.151H583.289C582.866 497.151 582.504 496.811 582.504 496.348V491.253C582.504 490.821 582.866 490.451 583.289 490.451H589.929C590.382 490.451 590.714 490.821 590.714 491.253V496.348C590.714 496.811 590.382 497.151 589.929 497.151ZM585.522 509.594L581.568 505.58V513.639L585.522 509.594ZM591.65 505.58L587.726 509.594L591.65 513.639V505.58ZM586.609 508.482L590.563 504.468H582.685L586.609 508.482Z" fill="white"/>
</g>
<defs>
<clipPath id="clip0_306_18">
<rect width="1247" height="884" fill="white"/>
</clipPath>
</defs>
</svg>
