<svg width="1247" height="884" viewBox="0 0 1247 884" fill="none" xmlns="http://www.w3.org/2000/svg">
<g clip-path="url(#clip0_306_18)">
<path d="M621.18 0.999341C623.005 0.35281 624.995 0.352821 626.82 0.999352L1241.92 219.008C1245.29 220.202 1247.54 223.389 1247.54 226.963V657.037C1247.54 660.611 1245.29 663.798 1241.92 664.992L626.82 883.001C624.995 883.647 623.005 883.647 621.18 883.001L6.08239 664.992C2.71331 663.798 0.461731 660.611 0.461731 657.037V226.963C0.461731 223.389 2.71331 220.202 6.08239 219.008L621.18 0.999341Z" fill="#808080" fill-opacity="0.75"/>
<path d="M624.553 177.168L1051.63 310.563C1052.68 310.892 1053.4 311.868 1053.4 312.972V571.222C1053.4 572.326 1052.68 573.302 1051.63 573.631L624.553 707.026C624.063 707.179 623.538 707.179 623.048 707.026L195.974 573.631C194.92 573.302 194.202 572.326 194.202 571.222V312.972C194.202 311.868 194.92 310.892 195.974 310.563L623.048 177.168C623.538 177.015 624.063 177.015 624.553 177.168Z" stroke="white" stroke-width="15.144"/>
<path d="M494.412 351.142C493.666 351.142 493.075 350.923 492.636 350.485C492.198 350.046 491.935 349.542 491.847 348.972L484.678 306.948C484.635 306.86 484.613 306.772 484.613 306.685C484.613 306.597 484.613 306.531 484.613 306.487C484.613 306.137 484.744 305.83 485.007 305.567C485.314 305.26 485.643 305.106 485.994 305.106H494.149C495.376 305.106 496.056 305.589 496.188 306.553L500.462 332.268L505.197 317.076C505.329 316.725 505.548 316.352 505.855 315.958C506.162 315.519 506.666 315.3 507.368 315.3H512.103C512.848 315.3 513.374 315.519 513.681 315.958C513.988 316.352 514.185 316.725 514.273 317.076L519.008 332.202L523.283 306.553C523.415 305.589 524.094 305.106 525.322 305.106H533.477C533.871 305.106 534.2 305.26 534.463 305.567C534.726 305.83 534.858 306.137 534.858 306.487C534.858 306.531 534.858 306.597 534.858 306.685C534.858 306.772 534.858 306.86 534.858 306.948L527.689 348.972C527.602 349.542 527.339 350.046 526.9 350.485C526.462 350.923 525.87 351.142 525.124 351.142H518.877C518.131 351.142 517.561 350.945 517.167 350.551C516.772 350.156 516.509 349.783 516.378 349.433L509.735 330.624L503.093 349.433C502.961 349.783 502.698 350.156 502.304 350.551C501.953 350.945 501.405 351.142 500.66 351.142H494.412ZM559.932 351.8C555.898 351.8 552.391 351.142 549.41 349.827C546.428 348.512 544.104 346.539 542.438 343.908C540.772 341.234 539.852 337.902 539.676 333.912C539.632 332.027 539.61 330.141 539.61 328.256C539.61 326.371 539.632 324.463 539.676 322.534C539.852 318.588 540.772 315.278 542.438 312.604C544.148 309.885 546.494 307.847 549.475 306.487C552.457 305.128 555.942 304.449 559.932 304.449C563.878 304.449 567.342 305.128 570.323 306.487C573.348 307.847 575.716 309.885 577.426 312.604C579.136 315.278 580.056 318.588 580.188 322.534C580.276 324.463 580.319 326.371 580.319 328.256C580.319 330.141 580.276 332.027 580.188 333.912C580.013 337.902 579.092 341.234 577.426 343.908C575.76 346.539 573.436 348.512 570.455 349.827C567.473 351.142 563.966 351.8 559.932 351.8ZM559.932 342.33C562.256 342.33 564.141 341.628 565.588 340.225C567.079 338.822 567.868 336.586 567.956 333.517C568.043 331.588 568.087 329.769 568.087 328.059C568.087 326.349 568.043 324.573 567.956 322.732C567.868 320.671 567.473 319.005 566.772 317.733C566.114 316.418 565.193 315.454 564.01 314.84C562.826 314.226 561.467 313.919 559.932 313.919C558.441 313.919 557.104 314.226 555.92 314.84C554.737 315.454 553.794 316.418 553.092 317.733C552.391 319.005 551.996 320.671 551.909 322.732C551.865 324.573 551.843 326.349 551.843 328.059C551.843 329.769 551.865 331.588 551.909 333.517C552.04 336.586 552.829 338.822 554.276 340.225C555.723 341.628 557.608 342.33 559.932 342.33ZM589.587 351.142C589.105 351.142 588.71 350.989 588.403 350.682C588.096 350.375 587.943 349.981 587.943 349.498V306.751C587.943 306.268 588.096 305.874 588.403 305.567C588.71 305.26 589.105 305.106 589.587 305.106H607.475C613.131 305.106 617.581 306.422 620.826 309.052C624.114 311.639 625.758 315.322 625.758 320.101C625.758 323.214 624.991 325.845 623.456 327.993C621.966 330.141 619.993 331.763 617.537 332.86L626.613 349.038C626.745 349.301 626.81 349.542 626.81 349.761C626.81 350.112 626.657 350.441 626.35 350.748C626.087 351.011 625.758 351.142 625.363 351.142H616.682C615.849 351.142 615.236 350.945 614.841 350.551C614.446 350.112 614.161 349.718 613.986 349.367L606.489 334.898H599.715V349.498C599.715 349.981 599.561 350.375 599.254 350.682C598.947 350.989 598.553 351.142 598.071 351.142H589.587ZM599.715 325.625H607.344C609.404 325.625 610.939 325.121 611.947 324.113C612.999 323.104 613.526 321.723 613.526 319.969C613.526 318.26 613.021 316.878 612.013 315.826C611.048 314.774 609.492 314.248 607.344 314.248H599.715V325.625ZM635.058 351.142C634.575 351.142 634.181 350.989 633.874 350.682C633.567 350.375 633.414 349.981 633.414 349.498V306.751C633.414 306.268 633.567 305.874 633.874 305.567C634.181 305.26 634.575 305.106 635.058 305.106H652.157C656.454 305.106 660.115 305.808 663.14 307.211C666.165 308.57 668.489 310.587 670.111 313.261C671.733 315.892 672.61 319.158 672.742 323.06C672.785 324.99 672.807 326.678 672.807 328.124C672.807 329.571 672.785 331.237 672.742 333.123C672.566 337.2 671.689 340.576 670.111 343.251C668.576 345.925 666.318 347.92 663.337 349.235C660.4 350.507 656.782 351.142 652.486 351.142H635.058ZM645.186 341.672H652.157C654.042 341.672 655.599 341.387 656.826 340.817C658.098 340.203 659.04 339.261 659.654 337.989C660.312 336.718 660.663 335.052 660.706 332.991C660.794 331.72 660.838 330.58 660.838 329.571C660.882 328.563 660.882 327.554 660.838 326.546C660.838 325.538 660.794 324.42 660.706 323.192C660.619 320.211 659.83 318.04 658.339 316.681C656.892 315.278 654.722 314.577 651.828 314.577H645.186V341.672ZM682.134 351.142C681.652 351.142 681.257 350.989 680.951 350.682C680.644 350.375 680.49 349.981 680.49 349.498V306.751C680.49 306.268 680.644 305.874 680.951 305.567C681.257 305.26 681.652 305.106 682.134 305.106H712.847C713.329 305.106 713.724 305.26 714.031 305.567C714.338 305.874 714.491 306.268 714.491 306.751V312.932C714.491 313.415 714.338 313.809 714.031 314.116C713.724 314.423 713.329 314.577 712.847 314.577H691.868V323.455H711.4C711.882 323.455 712.277 323.63 712.584 323.981C712.891 324.288 713.044 324.683 713.044 325.165V330.887C713.044 331.325 712.891 331.72 712.584 332.07C712.277 332.377 711.882 332.531 711.4 332.531H691.868V341.672H713.373C713.855 341.672 714.25 341.826 714.557 342.133C714.864 342.439 715.017 342.834 715.017 343.316V349.498C715.017 349.981 714.864 350.375 714.557 350.682C714.25 350.989 713.855 351.142 713.373 351.142H682.134ZM724.137 351.142C723.655 351.142 723.26 350.989 722.953 350.682C722.646 350.375 722.493 349.981 722.493 349.498V306.751C722.493 306.268 722.646 305.874 722.953 305.567C723.26 305.26 723.655 305.106 724.137 305.106H731.108C731.854 305.106 732.38 305.282 732.687 305.632C733.037 305.939 733.257 306.181 733.344 306.356L749.391 331.676V306.751C749.391 306.268 749.545 305.874 749.852 305.567C750.158 305.26 750.553 305.106 751.035 305.106H758.927C759.409 305.106 759.804 305.26 760.111 305.567C760.418 305.874 760.571 306.268 760.571 306.751V349.498C760.571 349.937 760.418 350.331 760.111 350.682C759.804 350.989 759.409 351.142 758.927 351.142H751.89C751.189 351.142 750.663 350.967 750.312 350.616C750.005 350.266 749.808 350.024 749.72 349.893L733.673 325.56V349.498C733.673 349.981 733.52 350.375 733.213 350.682C732.906 350.989 732.511 351.142 732.029 351.142H724.137ZM376.92 429.142C376.438 429.142 376.043 428.989 375.736 428.682C375.429 428.375 375.276 427.981 375.276 427.498V393.432H363.57C363.087 393.432 362.693 393.278 362.386 392.971C362.079 392.62 361.925 392.226 361.925 391.787V384.751C361.925 384.268 362.079 383.874 362.386 383.567C362.693 383.26 363.087 383.106 363.57 383.106H398.952C399.434 383.106 399.829 383.26 400.135 383.567C400.442 383.874 400.596 384.268 400.596 384.751V391.787C400.596 392.226 400.442 392.62 400.135 392.971C399.829 393.278 399.434 393.432 398.952 393.432H387.245V427.498C387.245 427.981 387.092 428.375 386.785 428.682C386.478 428.989 386.083 429.142 385.601 429.142H376.92ZM408.217 429.142C407.735 429.142 407.34 428.989 407.033 428.682C406.726 428.375 406.573 427.981 406.573 427.498V384.751C406.573 384.268 406.726 383.874 407.033 383.567C407.34 383.26 407.735 383.106 408.217 383.106H426.105C431.761 383.106 436.211 384.422 439.456 387.052C442.744 389.639 444.388 393.322 444.388 398.101C444.388 401.214 443.621 403.845 442.086 405.993C440.596 408.141 438.623 409.763 436.167 410.86L445.243 427.038C445.375 427.301 445.44 427.542 445.44 427.761C445.44 428.112 445.287 428.441 444.98 428.748C444.717 429.011 444.388 429.142 443.994 429.142H435.312C434.479 429.142 433.866 428.945 433.471 428.551C433.076 428.112 432.791 427.718 432.616 427.367L425.119 412.898H418.345V427.498C418.345 427.981 418.191 428.375 417.885 428.682C417.578 428.989 417.183 429.142 416.701 429.142H408.217ZM418.345 403.625H425.974C428.034 403.625 429.569 403.121 430.577 402.113C431.63 401.104 432.156 399.723 432.156 397.969C432.156 396.26 431.652 394.878 430.643 393.826C429.679 392.774 428.122 392.248 425.974 392.248H418.345V403.625ZM453.688 429.142C453.206 429.142 452.811 428.989 452.504 428.682C452.197 428.375 452.044 427.981 452.044 427.498V384.751C452.044 384.268 452.197 383.874 452.504 383.567C452.811 383.26 453.206 383.106 453.688 383.106H484.401C484.883 383.106 485.277 383.26 485.584 383.567C485.891 383.874 486.045 384.268 486.045 384.751V390.932C486.045 391.415 485.891 391.809 485.584 392.116C485.277 392.423 484.883 392.577 484.401 392.577H463.421V401.455H482.954C483.436 401.455 483.831 401.63 484.137 401.981C484.444 402.288 484.598 402.683 484.598 403.165V408.887C484.598 409.325 484.444 409.72 484.137 410.07C483.831 410.377 483.436 410.531 482.954 410.531H463.421V419.672H484.927C485.409 419.672 485.804 419.826 486.11 420.133C486.417 420.439 486.571 420.834 486.571 421.316V427.498C486.571 427.981 486.417 428.375 486.11 428.682C485.804 428.989 485.409 429.142 484.927 429.142H453.688ZM495.691 429.142C495.208 429.142 494.814 428.989 494.507 428.682C494.2 428.375 494.047 427.981 494.047 427.498V384.751C494.047 384.268 494.2 383.874 494.507 383.567C494.814 383.26 495.208 383.106 495.691 383.106H526.403C526.886 383.106 527.28 383.26 527.587 383.567C527.894 383.874 528.047 384.268 528.047 384.751V390.932C528.047 391.415 527.894 391.809 527.587 392.116C527.28 392.423 526.886 392.577 526.403 392.577H505.424V401.455H524.956C525.439 401.455 525.833 401.63 526.14 401.981C526.447 402.288 526.601 402.683 526.601 403.165V408.887C526.601 409.325 526.447 409.72 526.14 410.07C525.833 410.377 525.439 410.531 524.956 410.531H505.424V419.672H526.929C527.412 419.672 527.806 419.826 528.113 420.133C528.42 420.439 528.574 420.834 528.574 421.316V427.498C528.574 427.981 528.42 428.375 528.113 428.682C527.806 428.989 527.412 429.142 526.929 429.142H495.691ZM568.925 429.8C564.76 429.8 561.187 429.121 558.205 427.761C555.268 426.402 552.966 424.407 551.3 421.777C549.678 419.146 548.779 415.88 548.603 411.978C548.56 410.18 548.538 408.251 548.538 406.19C548.538 404.13 548.56 402.157 548.603 400.271C548.779 396.457 549.699 393.234 551.366 390.604C553.032 387.929 555.355 385.912 558.337 384.553C561.318 383.15 564.848 382.449 568.925 382.449C571.819 382.449 574.493 382.821 576.948 383.567C579.404 384.268 581.552 385.32 583.394 386.723C585.235 388.083 586.66 389.749 587.668 391.722C588.721 393.651 589.269 395.843 589.312 398.298C589.356 398.693 589.225 399.022 588.918 399.285C588.655 399.548 588.326 399.679 587.931 399.679H579.053C578.483 399.679 578.045 399.57 577.738 399.351C577.431 399.087 577.168 398.627 576.948 397.969C576.335 395.646 575.326 394.067 573.923 393.234C572.564 392.357 570.876 391.919 568.859 391.919C566.448 391.919 564.541 392.599 563.138 393.958C561.735 395.273 560.967 397.487 560.836 400.6C560.704 404.195 560.704 407.878 560.836 411.649C560.967 414.762 561.735 416.998 563.138 418.357C564.541 419.672 566.448 420.33 568.859 420.33C570.876 420.33 572.586 419.891 573.989 419.015C575.392 418.138 576.378 416.559 576.948 414.279C577.124 413.622 577.365 413.183 577.672 412.964C578.023 412.701 578.483 412.569 579.053 412.569H587.931C588.326 412.569 588.655 412.701 588.918 412.964C589.225 413.227 589.356 413.556 589.312 413.951C589.269 416.406 588.721 418.62 587.668 420.593C586.66 422.522 585.235 424.188 583.394 425.591C581.552 426.95 579.404 428.003 576.948 428.748C574.493 429.449 571.819 429.8 568.925 429.8ZM615.037 429.8C611.003 429.8 607.495 429.142 604.514 427.827C601.533 426.512 599.209 424.539 597.543 421.908C595.877 419.234 594.956 415.902 594.781 411.912C594.737 410.027 594.715 408.141 594.715 406.256C594.715 404.371 594.737 402.463 594.781 400.534C594.956 396.588 595.877 393.278 597.543 390.604C599.253 387.885 601.598 385.847 604.58 384.487C607.561 383.128 611.047 382.449 615.037 382.449C618.983 382.449 622.446 383.128 625.428 384.487C628.453 385.847 630.82 387.885 632.53 390.604C634.24 393.278 635.161 396.588 635.293 400.534C635.38 402.463 635.424 404.371 635.424 406.256C635.424 408.141 635.38 410.027 635.293 411.912C635.117 415.902 634.196 419.234 632.53 421.908C630.864 424.539 628.541 426.512 625.559 427.827C622.578 429.142 619.07 429.8 615.037 429.8ZM615.037 420.33C617.36 420.33 619.246 419.628 620.693 418.225C622.183 416.822 622.972 414.586 623.06 411.517C623.148 409.588 623.192 407.769 623.192 406.059C623.192 404.349 623.148 402.573 623.06 400.732C622.972 398.671 622.578 397.005 621.876 395.733C621.219 394.418 620.298 393.454 619.114 392.84C617.93 392.226 616.571 391.919 615.037 391.919C613.546 391.919 612.209 392.226 611.025 392.84C609.841 393.454 608.899 394.418 608.197 395.733C607.495 397.005 607.101 398.671 607.013 400.732C606.969 402.573 606.947 404.349 606.947 406.059C606.947 407.769 606.969 409.588 607.013 411.517C607.145 414.586 607.934 416.822 609.381 418.225C610.828 419.628 612.713 420.33 615.037 420.33ZM644.691 429.142C644.253 429.142 643.858 428.989 643.508 428.682C643.201 428.375 643.047 427.981 643.047 427.498V384.751C643.047 384.268 643.201 383.874 643.508 383.567C643.858 383.26 644.253 383.106 644.691 383.106H651.794C652.496 383.106 653.022 383.304 653.372 383.698C653.767 384.049 654.008 384.334 654.096 384.553L665.671 405.335L677.245 384.553C677.377 384.334 677.596 384.049 677.903 383.698C678.254 383.304 678.802 383.106 679.547 383.106H686.584C687.067 383.106 687.461 383.26 687.768 383.567C688.119 383.874 688.294 384.268 688.294 384.751V427.498C688.294 427.981 688.119 428.375 687.768 428.682C687.461 428.989 687.067 429.142 686.584 429.142H678.758C678.276 429.142 677.859 428.989 677.509 428.682C677.202 428.375 677.048 427.981 677.048 427.498V402.836L669.617 416.581C669.441 416.976 669.178 417.327 668.827 417.633C668.477 417.94 667.994 418.094 667.381 418.094H663.961C663.347 418.094 662.865 417.94 662.514 417.633C662.163 417.327 661.878 416.976 661.659 416.581L654.227 402.836V427.498C654.227 427.981 654.074 428.375 653.767 428.682C653.46 428.989 653.066 429.142 652.583 429.142H644.691ZM699.09 429.142C698.607 429.142 698.213 428.989 697.906 428.682C697.599 428.375 697.445 427.981 697.445 427.498V384.751C697.445 384.268 697.599 383.874 697.906 383.567C698.213 383.26 698.607 383.106 699.09 383.106H717.504C721.143 383.106 724.3 383.676 726.974 384.816C729.693 385.912 731.797 387.578 733.288 389.814C734.822 392.051 735.59 394.878 735.59 398.298C735.59 401.674 734.822 404.458 733.288 406.651C731.797 408.843 729.693 410.465 726.974 411.517C724.3 412.569 721.143 413.096 717.504 413.096H709.678V427.498C709.678 427.981 709.502 428.375 709.152 428.682C708.845 428.989 708.45 429.142 707.968 429.142H699.09ZM709.481 404.02H717.175C719.06 404.02 720.551 403.538 721.647 402.573C722.787 401.608 723.357 400.14 723.357 398.167C723.357 396.501 722.875 395.098 721.91 393.958C720.946 392.818 719.367 392.248 717.175 392.248H709.481V404.02ZM736.047 429.142C735.696 429.142 735.367 429.011 735.06 428.748C734.797 428.441 734.666 428.112 734.666 427.761C734.666 427.542 734.688 427.345 734.732 427.169L750.186 384.948C750.318 384.466 750.581 384.049 750.976 383.698C751.414 383.304 752.006 383.106 752.751 383.106H762.485C763.23 383.106 763.8 383.304 764.195 383.698C764.633 384.049 764.918 384.466 765.05 384.948L780.439 427.169C780.526 427.345 780.57 427.542 780.57 427.761C780.57 428.112 780.417 428.441 780.11 428.748C779.847 429.011 779.518 429.142 779.123 429.142H771.034C770.377 429.142 769.872 428.989 769.522 428.682C769.215 428.331 769.017 428.024 768.93 427.761L766.365 421.053H748.805L746.306 427.761C746.219 428.024 746.021 428.331 745.714 428.682C745.408 428.989 744.881 429.142 744.136 429.142H736.047ZM751.502 411.583H763.734L757.552 394.221L751.502 411.583ZM787.398 429.142C786.916 429.142 786.521 428.989 786.214 428.682C785.907 428.375 785.754 427.981 785.754 427.498V384.751C785.754 384.268 785.907 383.874 786.214 383.567C786.521 383.26 786.916 383.106 787.398 383.106H794.369C795.115 383.106 795.641 383.282 795.948 383.632C796.298 383.939 796.518 384.181 796.605 384.356L812.652 409.676V384.751C812.652 384.268 812.806 383.874 813.113 383.567C813.42 383.26 813.814 383.106 814.296 383.106H822.188C822.671 383.106 823.065 383.26 823.372 383.567C823.679 383.874 823.832 384.268 823.832 384.751V427.498C823.832 427.937 823.679 428.331 823.372 428.682C823.065 428.989 822.671 429.142 822.188 429.142H815.151C814.45 429.142 813.924 428.967 813.573 428.616C813.266 428.266 813.069 428.024 812.981 427.893L796.934 403.56V427.498C796.934 427.981 796.781 428.375 796.474 428.682C796.167 428.989 795.772 429.142 795.29 429.142H787.398ZM846.505 429.142C846.067 429.142 845.672 428.989 845.321 428.682C845.015 428.375 844.861 427.981 844.861 427.498V413.359L829.603 385.211C829.56 385.079 829.516 384.97 829.472 384.882C829.428 384.751 829.406 384.619 829.406 384.487C829.406 384.137 829.538 383.83 829.801 383.567C830.108 383.26 830.458 383.106 830.853 383.106H839.074C839.731 383.106 840.236 383.282 840.586 383.632C840.981 383.939 841.222 384.224 841.31 384.487L850.78 401.455L860.25 384.487C860.382 384.224 860.623 383.939 860.974 383.632C861.368 383.282 861.894 383.106 862.552 383.106H870.773C871.167 383.106 871.496 383.26 871.759 383.567C872.022 383.83 872.154 384.137 872.154 384.487C872.154 384.619 872.132 384.751 872.088 384.882C872.088 384.97 872.066 385.079 872.022 385.211L856.699 413.359V427.498C856.699 427.981 856.545 428.375 856.239 428.682C855.932 428.989 855.537 429.142 855.055 429.142H846.505ZM873.563 429.142C873.08 429.142 872.686 428.989 872.379 428.682C872.072 428.375 871.919 427.981 871.919 427.498V419.146C871.919 418.708 872.072 418.335 872.379 418.028C872.686 417.677 873.08 417.502 873.563 417.502H881.849C882.331 417.502 882.726 417.677 883.033 418.028C883.384 418.335 883.559 418.708 883.559 419.146V427.498C883.559 427.981 883.384 428.375 883.033 428.682C882.726 428.989 882.331 429.142 881.849 429.142H873.563Z" fill="white"/>
<ellipse cx="226.018" cy="334.844" rx="10.096" ry="9.9308" fill="white"/>
<ellipse cx="226.018" cy="553.322" rx="10.096" ry="9.9308" fill="white"/>
<ellipse cx="1027.64" cy="553.322" rx="10.096" ry="9.9308" fill="white"/>
<ellipse cx="1027.64" cy="334.844" rx="10.096" ry="9.9308" fill="white"/>
<ellipse cx="623.8" cy="203.758" rx="10.096" ry="9.9308" fill="white"/>
<ellipse cx="623.8" cy="677.457" rx="10.096" ry="9.9308" fill="white"/>
<rect x="293.661" y="511.613" width="661.289" height="9.9308" rx="4.9654" fill="white"/>
<path d="M514.615 607.281L519.916 570.783H541.748L541.117 574.898H523.853L522.137 586.811H537.66L537.079 590.9H521.556L519.79 603.065L537.559 603.116L536.928 607.281H514.615ZM556.993 607.785C555.344 607.785 553.779 607.575 552.298 607.154C550.818 606.734 549.497 606.103 548.336 605.261C547.191 604.403 546.291 603.343 545.635 602.081C544.996 600.802 544.684 599.305 544.701 597.588H549.522C549.64 598.968 550.052 600.129 550.759 601.071C551.482 602.014 552.425 602.72 553.586 603.192C554.763 603.663 556.076 603.898 557.523 603.898C559.155 603.898 560.636 603.663 561.965 603.192C563.311 602.704 564.414 602.014 565.272 601.122C566.147 600.23 566.668 599.162 566.837 597.916C566.988 596.823 566.879 595.872 566.508 595.064C566.138 594.257 565.541 593.584 564.716 593.045C563.892 592.507 562.857 592.086 561.612 591.783L555.049 590.117C552.542 589.528 550.658 588.477 549.396 586.962C548.151 585.448 547.688 583.446 548.008 580.955C548.294 578.852 549.084 577.001 550.38 575.402C551.676 573.804 553.325 572.559 555.327 571.667C557.346 570.775 559.559 570.329 561.965 570.329C564.641 570.329 566.853 570.842 568.603 571.869C570.353 572.895 571.632 574.225 572.44 575.857C573.248 577.472 573.559 579.155 573.374 580.905H568.629C568.696 579.256 568.41 577.952 567.77 576.992C567.148 576.017 566.281 575.327 565.171 574.923C564.06 574.502 562.815 574.292 561.435 574.292C560.14 574.292 558.869 574.527 557.624 574.999C556.396 575.453 555.352 576.143 554.494 577.068C553.653 577.994 553.14 579.138 552.955 580.501C552.769 581.813 553.047 582.882 553.787 583.706C554.528 584.531 555.983 585.238 558.154 585.827L564.489 587.492C566.206 587.879 567.569 588.451 568.578 589.209C569.588 589.966 570.328 590.824 570.799 591.783C571.27 592.742 571.548 593.743 571.632 594.787C571.716 595.83 571.691 596.856 571.556 597.866C571.304 599.7 570.547 601.374 569.285 602.889C568.04 604.386 566.374 605.581 564.287 606.473C562.201 607.348 559.769 607.785 556.993 607.785ZM584.766 607.281L589.385 575.074H578.304L578.935 570.783H605.084L604.503 575.074H593.953L589.309 607.281H584.766ZM597.904 607.281L598.787 601.324H604.163L603.28 607.281H597.904ZM620.81 607.281L621.214 604.428L621.441 602.939C621.744 600.752 622.442 598.909 623.536 597.412C624.63 595.897 625.942 594.602 627.473 593.525C629.021 592.431 630.637 591.447 632.319 590.572C634.019 589.697 635.626 588.813 637.14 587.921C638.655 587.013 639.934 585.986 640.977 584.842C642.037 583.698 642.685 582.301 642.92 580.652C643.173 578.801 642.76 577.295 641.683 576.134C640.623 574.973 639.05 574.393 636.964 574.393C635.466 574.393 634.12 574.704 632.925 575.327C631.731 575.932 630.721 576.791 629.896 577.901C629.089 578.995 628.517 580.291 628.18 581.788H623.662C623.982 579.685 624.739 577.767 625.934 576.033C627.128 574.283 628.719 572.887 630.704 571.844C632.69 570.8 635.029 570.279 637.721 570.279C640.06 570.279 642.028 570.716 643.627 571.591C645.226 572.449 646.387 573.661 647.11 575.226C647.834 576.774 648.044 578.583 647.741 580.652C647.438 582.84 646.74 584.682 645.646 586.18C644.569 587.661 643.265 588.923 641.734 589.966C640.22 590.992 638.629 591.926 636.964 592.768C635.315 593.609 633.741 594.459 632.244 595.317C630.746 596.175 629.484 597.168 628.458 598.295C627.431 599.406 626.8 600.777 626.565 602.409L626.464 603.141H644.763L644.182 607.281H620.81ZM661.483 607.836C657.663 607.836 654.861 606.271 653.078 603.141C651.294 599.995 650.831 595.342 651.69 589.183C652.279 585.027 653.28 581.544 654.693 578.734C656.107 575.924 657.84 573.812 659.893 572.399C661.962 570.985 664.268 570.279 666.808 570.279C670.578 570.279 673.362 571.869 675.163 575.049C676.963 578.212 677.426 582.899 676.551 589.108C675.693 595.283 673.918 599.952 671.225 603.116C668.55 606.263 665.302 607.836 661.483 607.836ZM662.088 603.797C664.562 603.797 666.581 602.653 668.146 600.365C669.728 598.059 670.88 594.316 671.604 589.133C672.361 583.849 672.26 580.047 671.301 577.724C670.342 575.386 668.651 574.216 666.228 574.216C663.788 574.216 661.752 575.394 660.12 577.75C658.488 580.089 657.301 583.883 656.561 589.133C655.837 594.299 655.964 598.034 656.94 600.34C657.932 602.645 659.649 603.797 662.088 603.797ZM679.523 607.281L679.926 604.428L680.154 602.939C680.457 600.752 681.155 598.909 682.249 597.412C683.342 595.897 684.655 594.602 686.186 593.525C687.734 592.431 689.349 591.447 691.032 590.572C692.732 589.697 694.339 588.813 695.853 587.921C697.367 587.013 698.646 585.986 699.689 584.842C700.749 583.698 701.397 582.301 701.633 580.652C701.885 578.801 701.473 577.295 700.396 576.134C699.336 574.973 697.763 574.393 695.676 574.393C694.179 574.393 692.833 574.704 691.638 575.327C690.443 575.932 689.434 576.791 688.609 577.901C687.801 578.995 687.229 580.291 686.893 581.788H682.375C682.694 579.685 683.452 577.767 684.646 576.033C685.841 574.283 687.431 572.887 689.417 571.844C691.402 570.8 693.741 570.279 696.433 570.279C698.772 570.279 700.741 570.716 702.34 571.591C703.938 572.449 705.099 573.661 705.823 575.226C706.546 576.774 706.757 578.583 706.454 580.652C706.151 582.84 705.453 584.682 704.359 586.18C703.282 587.661 701.978 588.923 700.447 589.966C698.932 590.992 697.342 591.926 695.676 592.768C694.027 593.609 692.454 594.459 690.956 595.317C689.459 596.175 688.197 597.168 687.17 598.295C686.144 599.406 685.513 600.777 685.277 602.409L685.176 603.141H703.475L702.895 607.281H679.523ZM720.195 607.836C716.376 607.836 713.574 606.271 711.79 603.141C710.007 599.995 709.544 595.342 710.402 589.183C710.991 585.027 711.992 581.544 713.406 578.734C714.819 575.924 716.552 573.812 718.605 572.399C720.675 570.985 722.98 570.279 725.521 570.279C729.29 570.279 732.075 571.869 733.875 575.049C735.676 578.212 736.139 582.899 735.264 589.108C734.405 595.283 732.63 599.952 729.938 603.116C727.263 606.263 724.015 607.836 720.195 607.836ZM720.801 603.797C723.275 603.797 725.294 602.653 726.859 600.365C728.44 598.059 729.593 594.316 730.317 589.133C731.074 583.849 730.973 580.047 730.014 577.724C729.055 575.386 727.363 574.216 724.94 574.216C722.501 574.216 720.465 575.394 718.832 577.75C717.2 580.089 716.014 583.883 715.274 589.133C714.55 594.299 714.676 598.034 715.652 600.34C716.645 602.645 718.361 603.797 720.801 603.797Z" fill="white"/>
<path d="M313.195 507.447C313.408 507.693 313.497 508.016 313.438 508.337C313.38 508.657 313.182 508.929 312.896 509.08C312.348 509.371 311.769 509.632 310.721 509.632C309.591 509.632 309 509.32 308.479 509.046C308.016 508.803 307.651 508.611 306.842 508.611H305.548V514.013C305.548 514.594 305.079 515.069 304.502 515.069H301.435C300.858 515.069 300.389 514.594 300.389 514.013V508.611H299.089C298.281 508.611 297.916 508.803 297.454 509.046C296.933 509.32 296.342 509.632 295.212 509.632C294.178 509.632 293.598 509.373 293.048 509.086C292.758 508.934 292.559 508.662 292.498 508.34C292.439 508.02 292.527 507.695 292.74 507.449L296.177 503.514C295.312 503.539 294.619 503.34 294.052 502.892C293.823 502.712 293.677 502.442 293.649 502.151C293.623 501.863 293.716 501.573 293.905 501.356L297.381 497.376C297.244 497.39 297.096 497.399 296.935 497.399H295.523C295.106 497.399 294.741 497.161 294.57 496.777C294.398 496.394 294.463 495.96 294.738 495.644L302.184 487.117C302.383 486.89 302.669 486.76 302.969 486.76C302.969 486.76 302.969 486.76 302.97 486.76C303.27 486.76 303.555 486.89 303.754 487.118L311.199 495.644C311.475 495.96 311.539 496.394 311.367 496.777C311.196 497.161 310.831 497.399 310.415 497.399H308.999C308.839 497.399 308.693 497.391 308.556 497.377L312.134 501.474C312.371 501.745 312.453 502.115 312.356 502.463C312.257 502.809 311.994 503.079 311.653 503.183L311.513 503.227C311.037 503.375 310.495 503.539 309.76 503.514L313.194 507.446C313.194 507.447 313.195 507.447 313.195 507.447ZM391.853 507.446L388.418 503.514C389.176 503.534 389.694 503.375 390.169 503.227L390.311 503.183C390.653 503.079 390.914 502.81 391.013 502.464C391.111 502.116 391.029 501.746 390.793 501.474L387.214 497.377C387.35 497.391 387.497 497.399 387.657 497.399H389.072C389.489 497.399 389.854 497.16 390.026 496.777C390.197 496.393 390.132 495.959 389.857 495.644L382.411 487.118C382.015 486.662 381.236 486.664 380.842 487.117L373.397 495.644C373.121 495.959 373.056 496.393 373.228 496.777C373.399 497.16 373.764 497.399 374.18 497.399H375.592C375.754 497.399 375.903 497.39 376.04 497.376L372.564 501.356C372.374 501.574 372.28 501.865 372.307 502.153C372.335 502.443 372.483 502.713 372.709 502.892C373.276 503.34 373.979 503.552 374.834 503.514L371.399 507.449C371.186 507.693 371.097 508.017 371.156 508.338C371.215 508.661 371.415 508.933 371.705 509.086C372.257 509.373 372.837 509.632 373.87 509.632C375.001 509.632 375.591 509.32 376.112 509.046C376.574 508.803 376.939 508.611 377.747 508.611H379.046V514.013C379.046 514.594 379.516 515.069 380.092 515.069H383.16C383.736 515.069 384.206 514.594 384.206 514.013V508.611H385.5C386.309 508.611 386.674 508.803 387.136 509.046C387.657 509.32 388.249 509.632 389.379 509.632C390.426 509.632 391.005 509.371 391.552 509.081C391.838 508.93 392.037 508.658 392.097 508.338C392.156 508.017 392.066 507.693 391.854 507.447C391.853 507.447 391.853 507.447 391.853 507.446ZM418.073 507.447C418.072 507.447 418.072 507.447 418.072 507.446L414.637 503.514C415.396 503.534 415.912 503.375 416.388 503.227L416.53 503.183C416.872 503.079 417.133 502.81 417.232 502.464C417.331 502.116 417.249 501.746 417.012 501.474L413.434 497.377C413.569 497.391 413.716 497.399 413.876 497.399H415.291C415.708 497.399 416.073 497.16 416.245 496.777C416.416 496.393 416.351 495.959 416.076 495.644L408.63 487.118C408.236 486.662 407.455 486.664 407.062 487.117L399.616 495.644C399.341 495.959 399.275 496.393 399.447 496.777C399.618 497.16 399.983 497.399 400.399 497.399H401.812C401.973 497.399 402.123 497.39 402.26 497.376L398.784 501.356C398.593 501.574 398.5 501.865 398.526 502.153C398.555 502.443 398.702 502.713 398.928 502.892C399.496 503.34 400.206 503.552 401.054 503.514L397.619 507.449C397.405 507.693 397.317 508.017 397.375 508.338C397.434 508.661 397.634 508.933 397.925 509.086C398.476 509.373 399.056 509.632 400.09 509.632C401.22 509.632 401.81 509.32 402.331 509.046C402.793 508.803 403.158 508.611 403.966 508.611H405.266V514.013C405.266 514.594 405.735 515.069 406.312 515.069H409.379C409.955 515.069 410.425 514.594 410.425 514.013V508.611H411.719C412.528 508.611 412.893 508.803 413.355 509.046C413.876 509.32 414.468 509.632 415.598 509.632C416.646 509.632 417.224 509.371 417.771 509.081C418.058 508.93 418.256 508.658 418.316 508.338C418.375 508.017 418.286 507.693 418.073 507.447ZM365.633 507.446L362.198 503.514C362.954 503.534 363.475 503.375 363.95 503.227L364.092 503.183C364.434 503.079 364.695 502.81 364.793 502.464C364.892 502.116 364.81 501.746 364.573 501.474L360.995 497.377C361.131 497.391 361.278 497.399 361.438 497.399H362.853C363.27 497.399 363.635 497.16 363.806 496.777C363.978 496.393 363.913 495.959 363.637 495.644L356.192 487.118C355.994 486.89 355.708 486.76 355.409 486.76C355.408 486.76 355.407 486.76 355.407 486.76C355.107 486.76 354.822 486.89 354.623 487.117L347.177 495.644C346.901 495.96 346.837 496.394 347.008 496.777C347.18 497.161 347.545 497.399 347.962 497.399H349.374C349.535 497.399 349.683 497.39 349.82 497.376L346.345 501.356C346.154 501.573 346.062 501.863 346.088 502.151C346.115 502.442 346.262 502.712 346.491 502.892C347.058 503.34 347.749 503.539 348.616 503.514L345.179 507.449C344.966 507.695 344.877 508.02 344.937 508.34C344.997 508.662 345.197 508.934 345.486 509.086C346.037 509.373 346.617 509.632 347.651 509.632C348.781 509.632 349.372 509.32 349.893 509.046C350.354 508.803 350.719 508.611 351.528 508.611H352.828V514.013C352.828 514.594 353.297 515.069 353.874 515.069H356.94C357.517 515.069 357.986 514.594 357.986 514.013V508.611H359.281C360.09 508.611 360.455 508.803 360.917 509.046C361.438 509.32 362.029 509.632 363.16 509.632C364.207 509.632 364.786 509.371 365.332 509.081C365.619 508.93 365.818 508.658 365.878 508.338C365.937 508.017 365.847 507.693 365.635 507.447C365.633 507.447 365.633 507.447 365.633 507.446ZM339.413 507.446L335.98 503.514C336.703 503.539 337.256 503.375 337.732 503.227L337.873 503.183C338.214 503.079 338.476 502.809 338.575 502.463C338.673 502.115 338.59 501.745 338.353 501.474L334.776 497.377C334.912 497.391 335.059 497.399 335.219 497.399H336.634C337.05 497.399 337.416 497.161 337.586 496.777C337.758 496.394 337.694 495.96 337.418 495.644L329.973 487.118C329.774 486.89 329.489 486.76 329.189 486.76C329.189 486.76 329.188 486.76 329.188 486.76C328.888 486.76 328.602 486.89 328.403 487.117L320.957 495.644C320.682 495.96 320.618 496.394 320.789 496.777C320.961 497.161 321.326 497.399 321.742 497.399H323.154C323.316 497.399 323.464 497.39 323.6 497.376L320.125 501.356C319.935 501.573 319.842 501.863 319.869 502.151C319.896 502.442 320.043 502.712 320.271 502.892C320.838 503.34 321.53 503.539 322.396 503.514L318.96 507.449C318.746 507.695 318.658 508.02 318.718 508.34C318.778 508.662 318.978 508.934 319.267 509.086C319.817 509.373 320.397 509.632 321.432 509.632C322.562 509.632 323.152 509.32 323.673 509.046C324.135 508.803 324.5 508.611 325.308 508.611H326.608V514.013C326.608 514.594 327.078 515.069 327.654 515.069H330.721C331.298 515.069 331.767 514.594 331.767 514.013V508.611H333.061C333.871 508.611 334.235 508.803 334.698 509.046C335.219 509.32 335.81 509.632 336.94 509.632C337.988 509.632 338.567 509.371 339.116 509.08C339.401 508.929 339.599 508.657 339.657 508.337C339.716 508.016 339.627 507.693 339.414 507.447C339.414 507.447 339.413 507.447 339.413 507.446Z" fill="white"/>
<path d="M444.5 507.447C444.713 507.693 444.802 508.016 444.743 508.337C444.685 508.657 444.487 508.929 444.201 509.08C443.653 509.371 443.074 509.632 442.026 509.632C440.896 509.632 440.305 509.32 439.784 509.046C439.321 508.803 438.956 508.611 438.147 508.611H436.853V514.013C436.853 514.594 436.384 515.069 435.807 515.069H432.74C432.163 515.069 431.694 514.594 431.694 514.013V508.611H430.394C429.586 508.611 429.221 508.803 428.759 509.046C428.238 509.32 427.647 509.632 426.518 509.632C425.483 509.632 424.903 509.373 424.353 509.086C424.063 508.934 423.864 508.662 423.803 508.34C423.744 508.02 423.832 507.695 424.045 507.449L427.482 503.514C426.617 503.539 425.924 503.34 425.357 502.892C425.128 502.712 424.982 502.442 424.954 502.151C424.928 501.863 425.021 501.573 425.21 501.356L428.686 497.376C428.549 497.39 428.401 497.399 428.24 497.399H426.828C426.411 497.399 426.046 497.161 425.875 496.777C425.703 496.394 425.768 495.96 426.043 495.644L433.489 487.117C433.688 486.89 433.974 486.76 434.274 486.76C434.274 486.76 434.275 486.76 434.275 486.76C434.575 486.76 434.86 486.89 435.059 487.118L442.504 495.644C442.78 495.96 442.844 496.394 442.672 496.777C442.501 497.161 442.136 497.399 441.72 497.399H440.304C440.144 497.399 439.998 497.391 439.861 497.377L443.439 501.474C443.676 501.745 443.759 502.115 443.661 502.463C443.562 502.809 443.3 503.079 442.958 503.183L442.818 503.227C442.342 503.375 441.8 503.539 441.066 503.514L444.499 507.446C444.499 507.447 444.5 507.447 444.5 507.447ZM523.158 507.446L519.723 503.514C520.481 503.534 520.999 503.375 521.474 503.227L521.616 503.183C521.958 503.079 522.219 502.81 522.318 502.464C522.416 502.116 522.334 501.746 522.098 501.474L518.519 497.377C518.655 497.391 518.802 497.399 518.962 497.399H520.377C520.794 497.399 521.159 497.16 521.331 496.777C521.502 496.393 521.437 495.959 521.162 495.644L513.716 487.118C513.32 486.662 512.541 486.664 512.148 487.117L504.702 495.644C504.426 495.959 504.361 496.393 504.533 496.777C504.704 497.16 505.069 497.399 505.485 497.399H506.897C507.059 497.399 507.208 497.39 507.345 497.376L503.87 501.356C503.679 501.574 503.585 501.865 503.612 502.153C503.64 502.443 503.788 502.713 504.014 502.892C504.581 503.34 505.284 503.552 506.139 503.514L502.705 507.449C502.491 507.693 502.402 508.017 502.461 508.338C502.52 508.661 502.72 508.933 503.01 509.086C503.562 509.373 504.142 509.632 505.175 509.632C506.306 509.632 506.896 509.32 507.417 509.046C507.879 508.803 508.244 508.611 509.052 508.611H510.351V514.013C510.351 514.594 510.821 515.069 511.397 515.069H514.465C515.041 515.069 515.511 514.594 515.511 514.013V508.611H516.805C517.614 508.611 517.979 508.803 518.441 509.046C518.962 509.32 519.554 509.632 520.684 509.632C521.731 509.632 522.31 509.371 522.857 509.081C523.144 508.93 523.342 508.658 523.402 508.338C523.461 508.017 523.371 507.693 523.159 507.447C523.158 507.447 523.158 507.447 523.158 507.446ZM549.378 507.447C549.377 507.447 549.377 507.447 549.377 507.446L545.942 503.514C546.701 503.534 547.217 503.375 547.693 503.227L547.835 503.183C548.177 503.079 548.438 502.81 548.537 502.464C548.636 502.116 548.554 501.746 548.317 501.474L544.739 497.377C544.874 497.391 545.022 497.399 545.182 497.399H546.596C547.014 497.399 547.378 497.16 547.55 496.777C547.722 496.393 547.656 495.959 547.381 495.644L539.935 487.118C539.541 486.662 538.76 486.664 538.367 487.117L530.921 495.644C530.646 495.959 530.58 496.393 530.752 496.777C530.924 497.16 531.288 497.399 531.704 497.399H533.117C533.278 497.399 533.428 497.39 533.565 497.376L530.089 501.356C529.898 501.574 529.805 501.865 529.831 502.153C529.86 502.443 530.007 502.713 530.233 502.892C530.801 503.34 531.511 503.552 532.359 503.514L528.924 507.449C528.71 507.693 528.622 508.017 528.681 508.338C528.739 508.661 528.939 508.933 529.23 509.086C529.782 509.373 530.361 509.632 531.395 509.632C532.525 509.632 533.115 509.32 533.636 509.046C534.099 508.803 534.463 508.611 535.271 508.611H536.571V514.013C536.571 514.594 537.04 515.069 537.617 515.069H540.684C541.26 515.069 541.73 514.594 541.73 514.013V508.611H543.024C543.833 508.611 544.198 508.803 544.66 509.046C545.182 509.32 545.773 509.632 546.903 509.632C547.951 509.632 548.529 509.371 549.076 509.081C549.363 508.93 549.561 508.658 549.621 508.338C549.68 508.017 549.591 507.693 549.378 507.447ZM496.938 507.446L493.503 503.514C494.259 503.534 494.78 503.375 495.255 503.227L495.397 503.183C495.739 503.079 496 502.81 496.098 502.464C496.197 502.116 496.115 501.746 495.878 501.474L492.3 497.377C492.436 497.391 492.583 497.399 492.743 497.399H494.158C494.575 497.399 494.94 497.16 495.111 496.777C495.283 496.393 495.218 495.959 494.942 495.644L487.497 487.118C487.299 486.89 487.013 486.76 486.714 486.76C486.713 486.76 486.712 486.76 486.712 486.76C486.412 486.76 486.127 486.89 485.928 487.117L478.482 495.644C478.207 495.96 478.142 496.394 478.313 496.777C478.485 497.161 478.85 497.399 479.267 497.399H480.679C480.84 497.399 480.988 497.39 481.125 497.376L477.65 501.356C477.46 501.573 477.367 501.863 477.393 502.151C477.42 502.442 477.567 502.712 477.796 502.892C478.363 503.34 479.054 503.539 479.921 503.514L476.484 507.449C476.271 507.695 476.182 508.02 476.242 508.34C476.302 508.662 476.502 508.934 476.791 509.086C477.342 509.373 477.922 509.632 478.956 509.632C480.086 509.632 480.677 509.32 481.198 509.046C481.659 508.803 482.024 508.611 482.833 508.611H484.133V514.013C484.133 514.594 484.602 515.069 485.179 515.069H488.246C488.822 515.069 489.291 514.594 489.291 514.013V508.611H490.586C491.395 508.611 491.76 508.803 492.222 509.046C492.743 509.32 493.334 509.632 494.465 509.632C495.512 509.632 496.091 509.371 496.637 509.081C496.924 508.93 497.123 508.658 497.183 508.338C497.242 508.017 497.152 507.693 496.94 507.447C496.938 507.447 496.938 507.447 496.938 507.446ZM470.718 507.446L467.285 503.514C468.008 503.539 468.561 503.375 469.037 503.227L469.178 503.183C469.519 503.079 469.781 502.809 469.88 502.463C469.978 502.115 469.895 501.745 469.658 501.474L466.081 497.377C466.217 497.391 466.364 497.399 466.524 497.399H467.939C468.355 497.399 468.721 497.161 468.892 496.777C469.063 496.394 468.999 495.96 468.723 495.644L461.278 487.118C461.079 486.89 460.794 486.76 460.494 486.76C460.494 486.76 460.493 486.76 460.493 486.76C460.193 486.76 459.907 486.89 459.708 487.117L452.262 495.644C451.987 495.96 451.923 496.394 452.094 496.777C452.266 497.161 452.631 497.399 453.047 497.399H454.459C454.621 497.399 454.769 497.39 454.906 497.376L451.43 501.356C451.24 501.573 451.147 501.863 451.174 502.151C451.201 502.442 451.348 502.712 451.576 502.892C452.143 503.34 452.835 503.539 453.701 503.514L450.265 507.449C450.052 507.695 449.963 508.02 450.023 508.34C450.083 508.662 450.283 508.934 450.572 509.086C451.122 509.373 451.702 509.632 452.737 509.632C453.867 509.632 454.457 509.32 454.979 509.046C455.44 508.803 455.805 508.611 456.613 508.611H457.913V514.013C457.913 514.594 458.383 515.069 458.959 515.069H462.026C462.603 515.069 463.072 514.594 463.072 514.013V508.611H464.367C465.176 508.611 465.54 508.803 466.003 509.046C466.524 509.32 467.115 509.632 468.245 509.632C469.294 509.632 469.872 509.371 470.421 509.08C470.706 508.929 470.904 508.657 470.962 508.337C471.021 508.016 470.932 507.693 470.719 507.447C470.719 507.447 470.718 507.447 470.718 507.446Z" fill="white"/>
<path d="M846.146 507.425C846.359 507.67 846.448 507.993 846.389 508.314C846.331 508.635 846.133 508.906 845.848 509.057C845.299 509.348 844.721 509.609 843.672 509.609C842.542 509.609 841.951 509.298 841.43 509.024C840.968 508.781 840.603 508.588 839.794 508.588H838.499V513.99C838.499 514.572 838.03 515.046 837.453 515.046H834.387C833.81 515.046 833.341 514.572 833.341 513.99V508.588H832.041C831.232 508.588 830.867 508.781 830.406 509.024C829.885 509.298 829.294 509.609 828.164 509.609C827.13 509.609 826.55 509.351 825.999 509.064C825.71 508.911 825.51 508.64 825.45 508.318C825.39 507.997 825.479 507.673 825.692 507.426L829.129 503.491C828.264 503.517 827.571 503.318 827.003 502.869C826.775 502.69 826.628 502.419 826.601 502.129C826.575 501.841 826.667 501.551 826.857 501.334L830.333 497.353C830.196 497.368 830.048 497.376 829.887 497.376H828.474C828.058 497.376 827.693 497.138 827.521 496.755C827.35 496.372 827.414 495.937 827.69 495.622L835.136 487.095C835.335 486.867 835.62 486.737 835.92 486.737C835.92 486.737 835.921 486.737 835.922 486.737C836.221 486.737 836.507 486.868 836.705 487.095L844.15 495.622C844.426 495.938 844.49 496.372 844.319 496.755C844.148 497.138 843.782 497.376 843.366 497.376H841.951C841.791 497.376 841.644 497.368 841.508 497.354L845.086 501.451C845.322 501.723 845.405 502.092 845.307 502.44C845.208 502.786 844.946 503.057 844.605 503.16L844.465 503.204C843.988 503.353 843.446 503.517 842.712 503.491L846.146 507.423C846.146 507.425 846.146 507.425 846.146 507.425ZM924.804 507.423L921.369 503.491C922.127 503.512 922.646 503.353 923.121 503.204L923.263 503.16C923.604 503.057 923.866 502.788 923.964 502.441C924.063 502.094 923.981 501.724 923.744 501.451L920.166 497.354C920.301 497.368 920.449 497.376 920.609 497.376H922.023C922.441 497.376 922.806 497.137 922.977 496.754C923.149 496.371 923.083 495.937 922.808 495.622L915.362 487.095C914.967 486.639 914.187 486.642 913.794 487.095L906.348 495.621C906.073 495.937 906.008 496.371 906.179 496.754C906.351 497.137 906.716 497.376 907.132 497.376H908.544C908.705 497.376 908.855 497.368 908.992 497.353L905.516 501.334C905.325 501.551 905.232 501.842 905.259 502.13C905.287 502.421 905.434 502.691 905.661 502.869C906.228 503.318 906.931 503.53 907.786 503.491L904.351 507.426C904.137 507.67 904.049 507.995 904.108 508.315C904.167 508.638 904.366 508.91 904.657 509.064C905.209 509.351 905.789 509.609 906.822 509.609C907.952 509.609 908.542 509.298 909.063 509.024C909.526 508.781 909.891 508.588 910.698 508.588H911.998V513.99C911.998 514.572 912.468 515.046 913.044 515.046H916.111C916.687 515.046 917.157 514.572 917.157 513.99V508.588H918.451C919.261 508.588 919.625 508.781 920.088 509.024C920.609 509.298 921.2 509.609 922.331 509.609C923.378 509.609 923.957 509.348 924.503 509.059C924.79 508.907 924.988 508.636 925.049 508.315C925.107 507.995 925.018 507.67 924.805 507.425C924.804 507.425 924.804 507.425 924.804 507.423ZM951.025 507.425C951.023 507.425 951.023 507.425 951.023 507.423L947.588 503.491C948.348 503.512 948.864 503.353 949.34 503.204L949.482 503.16C949.824 503.057 950.085 502.788 950.183 502.441C950.282 502.094 950.2 501.724 949.963 501.451L946.385 497.354C946.521 497.368 946.668 497.376 946.828 497.376H948.243C948.66 497.376 949.025 497.137 949.196 496.754C949.368 496.371 949.303 495.937 949.027 495.622L941.582 487.095C941.187 486.639 940.406 486.642 940.013 487.095L932.567 495.621C932.292 495.937 932.227 496.371 932.398 496.754C932.57 497.137 932.935 497.376 933.351 497.376H934.763C934.924 497.376 935.074 497.368 935.211 497.353L931.735 501.334C931.544 501.551 931.451 501.842 931.478 502.13C931.506 502.421 931.653 502.691 931.88 502.869C932.447 503.318 933.158 503.53 934.005 503.491L930.57 507.426C930.356 507.67 930.268 507.995 930.327 508.315C930.386 508.638 930.586 508.91 930.876 509.064C931.428 509.351 932.008 509.609 933.041 509.609C934.172 509.609 934.762 509.298 935.283 509.024C935.745 508.781 936.11 508.588 936.918 508.588H938.217V513.99C938.217 514.572 938.687 515.046 939.263 515.046H942.33C942.907 515.046 943.376 514.572 943.376 513.99V508.588H944.671C945.48 508.588 945.845 508.781 946.307 509.024C946.828 509.298 947.419 509.609 948.55 509.609C949.597 509.609 950.176 509.348 950.722 509.059C951.009 508.907 951.208 508.636 951.268 508.315C951.327 507.995 951.237 507.67 951.025 507.425ZM898.585 507.423L895.15 503.491C895.905 503.512 896.426 503.353 896.901 503.204L897.043 503.16C897.385 503.057 897.646 502.788 897.745 502.441C897.843 502.094 897.762 501.724 897.525 501.451L893.946 497.354C894.082 497.368 894.229 497.376 894.389 497.376H895.804C896.221 497.376 896.586 497.137 896.758 496.754C896.929 496.371 896.864 495.937 896.589 495.622L889.144 487.095C888.945 486.868 888.66 486.737 888.36 486.737C888.359 486.737 888.359 486.737 888.359 486.737C888.059 486.737 887.773 486.867 887.574 487.095L880.128 495.622C879.853 495.937 879.788 496.372 879.96 496.755C880.131 497.138 880.496 497.376 880.913 497.376H882.325C882.486 497.376 882.634 497.368 882.771 497.353L879.296 501.334C879.106 501.551 879.013 501.841 879.039 502.129C879.067 502.419 879.213 502.69 879.442 502.869C880.009 503.318 880.7 503.517 881.567 503.491L878.13 507.426C877.917 507.673 877.829 507.997 877.888 508.318C877.949 508.64 878.148 508.911 878.438 509.064C878.988 509.351 879.568 509.609 880.603 509.609C881.732 509.609 882.323 509.298 882.844 509.024C883.306 508.781 883.671 508.588 884.479 508.588H885.779V513.99C885.779 514.572 886.248 515.046 886.825 515.046H889.892C890.468 515.046 890.938 514.572 890.938 513.99V508.588H892.232C893.041 508.588 893.406 508.781 893.868 509.024C894.389 509.298 894.981 509.609 896.111 509.609C897.159 509.609 897.737 509.348 898.284 509.059C898.571 508.907 898.769 508.636 898.829 508.315C898.888 507.995 898.799 507.67 898.586 507.425C898.585 507.425 898.585 507.425 898.585 507.423ZM872.365 507.423L868.931 503.491C869.655 503.517 870.208 503.353 870.684 503.204L870.824 503.16C871.165 503.057 871.428 502.786 871.526 502.44C871.624 502.092 871.542 501.723 871.305 501.451L867.727 497.354C867.864 497.368 868.01 497.376 868.17 497.376H869.585C870.002 497.376 870.367 497.138 870.538 496.755C870.709 496.372 870.645 495.938 870.37 495.622L862.924 487.095C862.726 486.868 862.44 486.737 862.141 486.737C862.14 486.737 862.14 486.737 862.14 486.737C861.839 486.737 861.554 486.867 861.355 487.095L853.909 495.622C853.634 495.937 853.569 496.372 853.741 496.755C853.912 497.138 854.277 497.376 854.694 497.376H856.106C856.267 497.376 856.415 497.368 856.552 497.353L853.076 501.334C852.887 501.551 852.794 501.841 852.82 502.129C852.848 502.419 852.994 502.69 853.223 502.869C853.79 503.318 854.482 503.517 855.348 503.491L851.911 507.426C851.698 507.673 851.61 507.997 851.669 508.318C851.729 508.64 851.929 508.911 852.218 509.064C852.769 509.351 853.349 509.609 854.383 509.609C855.513 509.609 856.104 509.298 856.625 509.024C857.086 508.781 857.451 508.588 858.26 508.588H859.56V513.99C859.56 514.572 860.029 515.046 860.606 515.046H863.673C864.249 515.046 864.719 514.572 864.719 513.99V508.588H866.013C866.822 508.588 867.187 508.781 867.65 509.024C868.171 509.298 868.762 509.609 869.891 509.609C870.94 509.609 871.519 509.348 872.067 509.057C872.353 508.906 872.55 508.635 872.609 508.314C872.668 507.993 872.579 507.67 872.365 507.425C872.365 507.425 872.365 507.425 872.365 507.423Z" fill="white"/>
<path d="M772.852 505.359H750.676C747.989 505.359 745.802 507.567 745.802 510.28C745.802 512.994 747.989 515.201 750.676 515.201H772.852C775.54 515.201 777.725 512.994 777.725 510.28C777.725 507.567 775.539 505.359 772.852 505.359ZM747.526 510.28C747.526 508.525 748.939 507.098 750.676 507.098C752.414 507.098 753.827 508.526 753.827 510.28C753.827 512.034 752.414 513.462 750.676 513.462C748.939 513.462 747.526 512.034 747.526 510.28ZM772.852 513.462C771.114 513.462 769.7 512.034 769.7 510.28C769.7 508.525 771.114 507.098 772.852 507.098C774.589 507.098 776.002 508.526 776.002 510.28C776.002 512.034 774.588 513.462 772.852 513.462Z" fill="white"/>
<path d="M750.676 512.361C751.814 512.361 752.737 511.429 752.737 510.28C752.737 509.132 751.814 508.2 750.676 508.2C749.538 508.2 748.616 509.132 748.616 510.28C748.616 511.429 749.538 512.361 750.676 512.361Z" fill="white"/>
<path d="M772.852 512.361C773.989 512.361 774.912 511.429 774.912 510.28C774.912 509.132 773.989 508.2 772.852 508.2C771.714 508.2 770.791 509.132 770.791 510.28C770.791 511.429 771.714 512.361 772.852 512.361Z" fill="white"/>
<path d="M778.503 494.997H765.117V501.494H764.08V484.969L751.476 482.421L751.975 487.788L738.363 472.522L733.907 476.379L735.682 488.883C735.643 488.889 735.605 488.895 735.567 488.902L723.851 480.394C723.164 479.895 722.208 480.053 721.714 480.746C721.22 481.44 721.376 482.406 722.063 482.905L729.981 488.655L723.08 485.102C722.326 484.713 721.404 485.016 721.02 485.777C720.636 486.537 720.935 487.469 721.688 487.857L722.21 488.125C721.827 488.276 721.504 488.581 721.341 488.999C721.032 489.794 721.419 490.691 722.206 491.004L731.194 494.569C731.306 496.058 732.024 497.418 733.203 498.35L734.544 496.619L734.487 496.581C733.708 495.965 733.262 495.04 733.262 494.042C733.262 492.266 734.693 490.821 736.452 490.821H736.561L736.658 490.873L741.702 493.59L741.666 493.331C741.355 491.311 739.916 489.664 738.022 489.066L739.83 479.026L752.221 497.885L751.035 503.303C751.035 504.05 751.64 504.66 752.379 504.66H778.501C779.241 504.66 779.846 504.05 779.846 503.303V496.355C779.847 495.608 779.242 494.997 778.503 494.997ZM760.533 495.147H756.059V489.588H760.533V495.147Z" fill="white"/>
<path d="M740.026 498.073C739.801 498.282 739.556 498.474 739.292 498.644L739.204 498.696C738.993 498.806 738.26 499.169 737.669 499.23L737.452 497.05L735.713 496.36L735.015 495.878C734.455 495.43 734.135 494.762 734.135 494.041C734.135 492.786 735.119 491.758 736.348 491.703L748 497.988C748.465 498.25 748.779 498.75 748.779 499.325C748.779 500.169 748.102 500.853 747.265 500.853C747.086 500.853 746.913 500.822 746.753 500.764L740.026 498.073Z" fill="white"/>
<path d="M692.9 510.136C691.443 510.136 690.257 511.335 690.257 512.805C690.257 514.276 691.443 515.474 692.9 515.474C694.356 515.474 695.543 514.276 695.543 512.805C695.543 511.335 694.356 510.136 692.9 510.136ZM692.9 514.82C691.767 514.82 690.904 513.894 690.904 512.805C690.904 511.716 691.821 510.79 692.9 510.79C693.978 510.79 694.895 511.716 694.895 512.805C694.895 513.894 694.032 514.82 692.9 514.82Z" fill="white"/>
<path d="M697.592 510.136C696.136 510.136 694.949 511.335 694.949 512.805C694.949 514.276 696.136 515.474 697.592 515.474C699.049 515.474 700.235 514.276 700.235 512.805C700.235 511.335 699.049 510.136 697.592 510.136ZM697.592 514.82C696.46 514.82 695.597 513.894 695.597 512.805C695.597 511.716 696.514 510.79 697.592 510.79C698.671 510.79 699.588 511.716 699.588 512.805C699.588 513.894 698.725 514.82 697.592 514.82Z" fill="white"/>
<path d="M702.231 510.136C700.774 510.136 699.588 511.335 699.588 512.805C699.588 514.276 700.774 515.474 702.231 515.474C703.687 515.474 704.874 514.276 704.874 512.805C704.874 511.335 703.687 510.136 702.231 510.136ZM702.231 514.82C701.098 514.82 700.235 513.894 700.235 512.805C700.235 511.716 701.152 510.79 702.231 510.79C703.309 510.79 704.226 511.716 704.226 512.805C704.226 513.894 703.363 514.82 702.231 514.82Z" fill="white"/>
<path d="M699.966 506.106C698.509 506.106 697.323 507.305 697.323 508.775C697.323 510.245 698.509 511.444 699.966 511.444C701.422 511.444 702.608 510.245 702.608 508.775C702.608 507.305 701.368 506.106 699.966 506.106ZM699.966 510.79C698.833 510.79 697.97 509.864 697.97 508.775C697.97 507.686 698.887 506.76 699.966 506.76C701.044 506.76 701.961 507.686 701.961 508.775C701.961 509.864 701.044 510.79 699.966 510.79Z" fill="white"/>
<path d="M697.592 501.967C696.136 501.967 694.949 503.166 694.949 504.636C694.949 506.106 696.136 507.305 697.592 507.305C699.049 507.305 700.235 506.106 700.235 504.636C700.235 503.166 699.049 501.967 697.592 501.967ZM697.592 506.651C696.46 506.651 695.597 505.725 695.597 504.636C695.597 503.492 696.514 502.621 697.592 502.621C698.671 502.621 699.588 503.547 699.588 504.636C699.588 505.78 698.725 506.651 697.592 506.651Z" fill="white"/>
<path d="M695.273 506.106C693.817 506.106 692.63 507.305 692.63 508.775C692.63 510.245 693.817 511.444 695.273 511.444C696.729 511.444 697.916 510.245 697.916 508.775C697.916 507.305 696.729 506.106 695.273 506.106ZM695.273 510.79C694.14 510.79 693.277 509.864 693.277 508.775C693.277 507.686 694.194 506.76 695.273 506.76C696.352 506.76 697.269 507.686 697.269 508.775C697.269 509.864 696.406 510.79 695.273 510.79Z" fill="white"/>
<path d="M697.592 506.706C696.46 506.706 695.543 505.78 695.543 504.636C695.543 503.492 696.46 502.566 697.592 502.566C697.646 502.566 697.7 502.566 697.754 502.566V501.967H667.01V506.052H664.799V510.137H662.156V515.419H692.9V514.82C691.767 514.82 690.85 513.894 690.85 512.751C690.85 511.607 691.767 510.681 692.9 510.681C693.493 510.681 693.978 510.899 694.356 511.335H695.543V510.736C695.435 510.736 695.381 510.736 695.273 510.736C694.14 510.736 693.223 509.81 693.223 508.666C693.223 507.522 694.14 506.597 695.273 506.597C695.812 506.597 696.352 506.814 696.729 507.196H697.754V506.597C697.7 506.706 697.646 506.706 697.592 506.706Z" fill="white"/>
<path d="M662.156 515.474C663.615 515.474 664.799 514.279 664.799 512.805C664.799 511.331 663.615 510.136 662.156 510.136C660.696 510.136 659.513 511.331 659.513 512.805C659.513 514.279 660.696 515.474 662.156 515.474Z" fill="white"/>
<path d="M664.799 511.444C666.258 511.444 667.442 510.249 667.442 508.775C667.442 507.301 666.258 506.106 664.799 506.106C663.339 506.106 662.156 507.301 662.156 508.775C662.156 510.249 663.339 511.444 664.799 511.444Z" fill="white"/>
<path d="M667.064 507.305C668.524 507.305 669.707 506.11 669.707 504.636C669.707 503.162 668.524 501.967 667.064 501.967C665.604 501.967 664.421 503.162 664.421 504.636C664.421 506.11 665.604 507.305 667.064 507.305Z" fill="white"/>
<path d="M702.231 514.82H692.253V515.42H702.231V514.82Z" fill="white"/>
<path d="M695.111 513.622L694.302 514.984H696.352L695.111 513.622Z" fill="white"/>
<path d="M699.858 513.731L698.833 514.984H700.936L699.858 513.731Z" fill="white"/>
<path fill-rule="evenodd" clip-rule="evenodd" d="M586.609 510.736L582.685 514.75H590.563L586.609 510.736V510.736ZM602.456 498.633V514.75H617.517V483.257C617.517 481.157 616.672 479.212 615.284 477.822C613.925 476.433 612.054 475.568 609.971 475.568C607.919 475.568 606.017 476.433 604.659 477.822C603.301 479.212 602.456 481.157 602.456 483.257V491.717L606.349 497.398C606.591 497.737 606.53 498.231 606.168 498.509C606.017 498.602 605.866 498.633 605.715 498.633H602.456V498.633ZM584.073 495.576H589.175V492.056H584.073V495.576ZM593.219 503.666V514.75H600.886V497.861C600.886 497.398 601.248 497.058 601.671 497.058H604.236L597.294 486.993L586.609 481.003L575.924 486.993L569.012 497.058H571.547C572 497.058 572.332 497.398 572.332 497.861V514.75H580.029V503.666C580.029 503.233 580.361 502.863 580.814 502.863H592.434C592.857 502.863 593.219 503.233 593.219 503.666V503.666ZM589.929 497.151H583.289C582.866 497.151 582.504 496.811 582.504 496.348V491.253C582.504 490.821 582.866 490.451 583.289 490.451H589.929C590.382 490.451 590.714 490.821 590.714 491.253V496.348C590.714 496.811 590.382 497.151 589.929 497.151ZM585.522 509.594L581.568 505.58V513.639L585.522 509.594ZM591.65 505.58L587.726 509.594L591.65 513.639V505.58ZM586.609 508.482L590.563 504.468H582.685L586.609 508.482Z" fill="white"/>
</g>
<defs>
<clipPath id="clip0_306_18">
<rect width="1247" height="884" fill="white"/>
</clipPath>
</defs>
</svg>
