<svg width="834" height="451" viewBox="0 0 834 451" fill="none" xmlns="http://www.w3.org/2000/svg">
<path d="M417.622 5.9132L770.414 116.107C771.285 116.379 771.878 117.185 771.878 118.097V331.429C771.878 332.341 771.285 333.147 770.414 333.419L417.622 443.613C417.217 443.739 416.783 443.739 416.378 443.613L63.5858 333.419C62.7152 333.147 62.1224 332.341 62.1224 331.429V118.097C62.1224 117.185 62.7152 116.379 63.5858 116.107L416.378 5.9132C416.783 5.78677 417.217 5.78677 417.622 5.9132Z" stroke="black" stroke-width="12.51"/>
<path d="M310.116 149.412C309.5 149.412 309.011 149.231 308.649 148.869C308.287 148.507 308.07 148.09 307.997 147.619L302.076 112.904C302.039 112.832 302.021 112.759 302.021 112.687C302.021 112.614 302.021 112.56 302.021 112.524C302.021 112.234 302.13 111.981 302.347 111.763C302.601 111.51 302.872 111.383 303.162 111.383H309.899C310.913 111.383 311.474 111.781 311.583 112.578L315.114 133.82L319.026 121.271C319.134 120.981 319.315 120.673 319.569 120.347C319.822 119.985 320.239 119.804 320.818 119.804H324.73C325.346 119.804 325.78 119.985 326.034 120.347C326.287 120.673 326.45 120.981 326.523 121.271L330.434 133.766L333.966 112.578C334.074 111.781 334.636 111.383 335.65 111.383H342.386C342.712 111.383 342.984 111.51 343.201 111.763C343.419 111.981 343.527 112.234 343.527 112.524C343.527 112.56 343.527 112.614 343.527 112.687C343.527 112.759 343.527 112.832 343.527 112.904L337.606 147.619C337.533 148.09 337.316 148.507 336.954 148.869C336.591 149.231 336.103 149.412 335.487 149.412H330.326C329.71 149.412 329.239 149.249 328.913 148.923C328.587 148.597 328.37 148.289 328.261 147.999L322.774 132.462L317.287 147.999C317.179 148.289 316.961 148.597 316.635 148.923C316.346 149.249 315.893 149.412 315.277 149.412H310.116ZM364.24 149.955C360.908 149.955 358.011 149.412 355.548 148.325C353.085 147.239 351.166 145.609 349.789 143.436C348.413 141.227 347.652 138.474 347.508 135.178C347.471 133.621 347.453 132.064 347.453 130.506C347.453 128.949 347.471 127.373 347.508 125.78C347.652 122.52 348.413 119.786 349.789 117.576C351.202 115.331 353.139 113.647 355.602 112.524C358.065 111.401 360.944 110.84 364.24 110.84C367.5 110.84 370.361 111.401 372.824 112.524C375.323 113.647 377.279 115.331 378.691 117.576C380.104 119.786 380.864 122.52 380.973 125.78C381.045 127.373 381.082 128.949 381.082 130.506C381.082 132.064 381.045 133.621 380.973 135.178C380.828 138.474 380.068 141.227 378.691 143.436C377.315 145.609 375.395 147.239 372.933 148.325C370.47 149.412 367.572 149.955 364.24 149.955ZM364.24 142.132C366.16 142.132 367.717 141.553 368.912 140.394C370.144 139.235 370.796 137.388 370.868 134.852C370.941 133.259 370.977 131.756 370.977 130.343C370.977 128.931 370.941 127.464 370.868 125.943C370.796 124.24 370.47 122.864 369.89 121.814C369.347 120.727 368.586 119.93 367.609 119.423C366.631 118.916 365.508 118.663 364.24 118.663C363.009 118.663 361.904 118.916 360.926 119.423C359.948 119.93 359.17 120.727 358.59 121.814C358.011 122.864 357.685 124.24 357.612 125.943C357.576 127.464 357.558 128.931 357.558 130.343C357.558 131.756 357.576 133.259 357.612 134.852C357.721 137.388 358.373 139.235 359.568 140.394C360.763 141.553 362.321 142.132 364.24 142.132ZM388.737 149.412C388.339 149.412 388.013 149.285 387.759 149.032C387.506 148.778 387.379 148.452 387.379 148.054V112.741C387.379 112.343 387.506 112.017 387.759 111.763C388.013 111.51 388.339 111.383 388.737 111.383H403.514C408.186 111.383 411.862 112.47 414.543 114.643C417.259 116.779 418.617 119.822 418.617 123.77C418.617 126.341 417.983 128.514 416.716 130.289C415.484 132.064 413.854 133.404 411.826 134.309L419.323 147.674C419.432 147.891 419.486 148.09 419.486 148.271C419.486 148.561 419.36 148.832 419.106 149.086C418.889 149.303 418.617 149.412 418.291 149.412H411.12C410.432 149.412 409.925 149.249 409.599 148.923C409.273 148.561 409.037 148.235 408.893 147.945L402.699 135.993H397.104V148.054C397.104 148.452 396.977 148.778 396.723 149.032C396.47 149.285 396.144 149.412 395.745 149.412H388.737ZM397.104 128.333H403.405C405.108 128.333 406.375 127.917 407.208 127.084C408.078 126.251 408.512 125.11 408.512 123.661C408.512 122.248 408.096 121.108 407.263 120.238C406.466 119.369 405.18 118.934 403.405 118.934H397.104V128.333ZM426.299 149.412C425.901 149.412 425.575 149.285 425.321 149.032C425.068 148.778 424.941 148.452 424.941 148.054V112.741C424.941 112.343 425.068 112.017 425.321 111.763C425.575 111.51 425.901 111.383 426.299 111.383H440.424C443.974 111.383 446.998 111.962 449.497 113.121C451.996 114.244 453.916 115.91 455.256 118.12C456.596 120.293 457.32 122.991 457.429 126.214C457.465 127.808 457.483 129.202 457.483 130.397C457.483 131.593 457.465 132.969 457.429 134.526C457.284 137.895 456.559 140.683 455.256 142.893C453.988 145.102 452.123 146.75 449.66 147.837C447.233 148.887 444.245 149.412 440.696 149.412H426.299ZM434.666 141.589H440.424C441.982 141.589 443.267 141.353 444.282 140.883C445.332 140.376 446.111 139.597 446.618 138.547C447.161 137.496 447.451 136.12 447.487 134.418C447.559 133.367 447.596 132.426 447.596 131.593C447.632 130.76 447.632 129.927 447.596 129.094C447.596 128.261 447.559 127.337 447.487 126.323C447.414 123.86 446.762 122.067 445.531 120.945C444.336 119.786 442.543 119.206 440.153 119.206H434.666V141.589ZM465.188 149.412C464.789 149.412 464.463 149.285 464.21 149.032C463.956 148.778 463.83 148.452 463.83 148.054V112.741C463.83 112.343 463.956 112.017 464.21 111.763C464.463 111.51 464.789 111.383 465.188 111.383H490.559C490.957 111.383 491.283 111.51 491.536 111.763C491.79 112.017 491.917 112.343 491.917 112.741V117.848C491.917 118.246 491.79 118.572 491.536 118.826C491.283 119.079 490.957 119.206 490.559 119.206H473.228V126.54H489.363C489.762 126.54 490.088 126.685 490.341 126.975C490.595 127.228 490.722 127.554 490.722 127.953V132.679C490.722 133.041 490.595 133.367 490.341 133.657C490.088 133.911 489.762 134.037 489.363 134.037H473.228V141.589H490.993C491.392 141.589 491.718 141.716 491.971 141.969C492.225 142.223 492.351 142.549 492.351 142.947V148.054C492.351 148.452 492.225 148.778 491.971 149.032C491.718 149.285 491.392 149.412 490.993 149.412H465.188ZM499.885 149.412C499.487 149.412 499.161 149.285 498.907 149.032C498.654 148.778 498.527 148.452 498.527 148.054V112.741C498.527 112.343 498.654 112.017 498.907 111.763C499.161 111.51 499.487 111.383 499.885 111.383H505.644C506.259 111.383 506.694 111.528 506.947 111.818C507.237 112.071 507.418 112.27 507.491 112.415L520.747 133.331V112.741C520.747 112.343 520.873 112.017 521.127 111.763C521.38 111.51 521.706 111.383 522.105 111.383H528.624C529.022 111.383 529.348 111.51 529.602 111.763C529.855 112.017 529.982 112.343 529.982 112.741V148.054C529.982 148.416 529.855 148.742 529.602 149.032C529.348 149.285 529.022 149.412 528.624 149.412H522.811C522.232 149.412 521.797 149.267 521.507 148.977C521.254 148.688 521.091 148.488 521.018 148.38L507.762 128.279V148.054C507.762 148.452 507.636 148.778 507.382 149.032C507.129 149.285 506.803 149.412 506.404 149.412H499.885ZM213.06 213.412C212.661 213.412 212.335 213.285 212.082 213.032C211.828 212.778 211.702 212.452 211.702 212.054V183.912H202.031C201.633 183.912 201.307 183.786 201.053 183.532C200.8 183.242 200.673 182.916 200.673 182.554V176.741C200.673 176.343 200.8 176.017 201.053 175.763C201.307 175.51 201.633 175.383 202.031 175.383H231.259C231.658 175.383 231.984 175.51 232.237 175.763C232.491 176.017 232.618 176.343 232.618 176.741V182.554C232.618 182.916 232.491 183.242 232.237 183.532C231.984 183.786 231.658 183.912 231.259 183.912H221.589V212.054C221.589 212.452 221.462 212.778 221.209 213.032C220.955 213.285 220.629 213.412 220.231 213.412H213.06ZM238.913 213.412C238.515 213.412 238.189 213.285 237.935 213.032C237.682 212.778 237.555 212.452 237.555 212.054V176.741C237.555 176.343 237.682 176.017 237.935 175.763C238.189 175.51 238.515 175.383 238.913 175.383H253.69C258.362 175.383 262.038 176.47 264.718 178.643C267.435 180.779 268.793 183.822 268.793 187.77C268.793 190.341 268.159 192.514 266.892 194.289C265.66 196.064 264.03 197.404 262.002 198.309L269.499 211.674C269.608 211.891 269.662 212.09 269.662 212.271C269.662 212.561 269.536 212.832 269.282 213.086C269.065 213.303 268.793 213.412 268.467 213.412H261.296C260.608 213.412 260.101 213.249 259.775 212.923C259.449 212.561 259.213 212.235 259.068 211.945L252.875 199.993H247.279V212.054C247.279 212.452 247.153 212.778 246.899 213.032C246.646 213.285 246.32 213.412 245.921 213.412H238.913ZM247.279 192.333H253.581C255.284 192.333 256.551 191.917 257.384 191.084C258.254 190.251 258.688 189.11 258.688 187.661C258.688 186.248 258.272 185.108 257.439 184.238C256.642 183.369 255.356 182.934 253.581 182.934H247.279V192.333ZM276.475 213.412C276.077 213.412 275.751 213.285 275.497 213.032C275.244 212.778 275.117 212.452 275.117 212.054V176.741C275.117 176.343 275.244 176.017 275.497 175.763C275.751 175.51 276.077 175.383 276.475 175.383H301.846C302.244 175.383 302.57 175.51 302.824 175.763C303.077 176.017 303.204 176.343 303.204 176.741V181.848C303.204 182.246 303.077 182.572 302.824 182.826C302.57 183.079 302.244 183.206 301.846 183.206H284.516V190.54H300.651C301.049 190.54 301.375 190.685 301.629 190.975C301.882 191.228 302.009 191.554 302.009 191.953V196.679C302.009 197.041 301.882 197.367 301.629 197.657C301.375 197.911 301.049 198.037 300.651 198.037H284.516V205.589H302.281C302.679 205.589 303.005 205.716 303.259 205.969C303.512 206.223 303.639 206.549 303.639 206.947V212.054C303.639 212.452 303.512 212.778 303.259 213.032C303.005 213.285 302.679 213.412 302.281 213.412H276.475ZM311.172 213.412C310.774 213.412 310.448 213.285 310.195 213.032C309.941 212.778 309.814 212.452 309.814 212.054V176.741C309.814 176.343 309.941 176.017 310.195 175.763C310.448 175.51 310.774 175.383 311.172 175.383H336.543C336.942 175.383 337.268 175.51 337.521 175.763C337.775 176.017 337.901 176.343 337.901 176.741V181.848C337.901 182.246 337.775 182.572 337.521 182.826C337.268 183.079 336.942 183.206 336.543 183.206H319.213V190.54H335.348C335.746 190.54 336.072 190.685 336.326 190.975C336.579 191.228 336.706 191.554 336.706 191.953V196.679C336.706 197.041 336.579 197.367 336.326 197.657C336.072 197.911 335.746 198.037 335.348 198.037H319.213V205.589H336.978C337.376 205.589 337.702 205.716 337.956 205.969C338.209 206.223 338.336 206.549 338.336 206.947V212.054C338.336 212.452 338.209 212.778 337.956 213.032C337.702 213.285 337.376 213.412 336.978 213.412H311.172ZM371.669 213.955C368.228 213.955 365.277 213.394 362.814 212.271C360.387 211.148 358.486 209.5 357.109 207.327C355.769 205.154 355.027 202.456 354.882 199.233C354.846 197.748 354.828 196.154 354.828 194.452C354.828 192.75 354.846 191.12 354.882 189.562C355.027 186.411 355.787 183.749 357.164 181.576C358.54 179.367 360.46 177.701 362.922 176.578C365.385 175.419 368.301 174.84 371.669 174.84C374.059 174.84 376.269 175.148 378.297 175.763C380.325 176.343 382.1 177.212 383.621 178.371C385.142 179.494 386.319 180.87 387.152 182.5C388.022 184.093 388.474 185.904 388.511 187.933C388.547 188.259 388.438 188.53 388.185 188.747C387.967 188.965 387.696 189.073 387.37 189.073H380.035C379.565 189.073 379.202 188.983 378.949 188.802C378.695 188.584 378.478 188.204 378.297 187.661C377.79 185.741 376.957 184.438 375.798 183.749C374.675 183.025 373.281 182.663 371.615 182.663C369.623 182.663 368.047 183.224 366.888 184.347C365.729 185.434 365.096 187.263 364.987 189.834C364.878 192.804 364.878 195.846 364.987 198.961C365.096 201.532 365.729 203.38 366.888 204.502C368.047 205.589 369.623 206.132 371.615 206.132C373.281 206.132 374.693 205.77 375.852 205.046C377.011 204.321 377.826 203.017 378.297 201.134C378.442 200.591 378.641 200.229 378.895 200.048C379.184 199.83 379.565 199.722 380.035 199.722H387.37C387.696 199.722 387.967 199.83 388.185 200.048C388.438 200.265 388.547 200.536 388.511 200.862C388.474 202.891 388.022 204.72 387.152 206.349C386.319 207.943 385.142 209.319 383.621 210.478C382.1 211.601 380.325 212.47 378.297 213.086C376.269 213.666 374.059 213.955 371.669 213.955ZM409.76 213.955C406.428 213.955 403.531 213.412 401.068 212.325C398.605 211.239 396.686 209.609 395.309 207.436C393.933 205.227 393.173 202.474 393.028 199.178C392.991 197.621 392.973 196.064 392.973 194.506C392.973 192.949 392.991 191.373 393.028 189.78C393.173 186.52 393.933 183.786 395.309 181.576C396.722 179.331 398.66 177.647 401.122 176.524C403.585 175.401 406.465 174.84 409.76 174.84C413.02 174.84 415.881 175.401 418.344 176.524C420.843 177.647 422.799 179.331 424.211 181.576C425.624 183.786 426.385 186.52 426.493 189.78C426.566 191.373 426.602 192.949 426.602 194.506C426.602 196.064 426.566 197.621 426.493 199.178C426.348 202.474 425.588 205.227 424.211 207.436C422.835 209.609 420.916 211.239 418.453 212.325C415.99 213.412 413.093 213.955 409.76 213.955ZM409.76 206.132C411.68 206.132 413.237 205.553 414.433 204.394C415.664 203.235 416.316 201.388 416.388 198.852C416.461 197.259 416.497 195.756 416.497 194.343C416.497 192.931 416.461 191.464 416.388 189.943C416.316 188.24 415.99 186.864 415.41 185.814C414.867 184.727 414.107 183.93 413.129 183.423C412.151 182.916 411.028 182.663 409.76 182.663C408.529 182.663 407.424 182.916 406.447 183.423C405.469 183.93 404.69 184.727 404.11 185.814C403.531 186.864 403.205 188.24 403.133 189.943C403.096 191.464 403.078 192.931 403.078 194.343C403.078 195.756 403.096 197.259 403.133 198.852C403.241 201.388 403.893 203.235 405.088 204.394C406.284 205.553 407.841 206.132 409.76 206.132ZM434.257 213.412C433.895 213.412 433.569 213.285 433.279 213.032C433.026 212.778 432.899 212.452 432.899 212.054V176.741C432.899 176.343 433.026 176.017 433.279 175.763C433.569 175.51 433.895 175.383 434.257 175.383H440.125C440.704 175.383 441.139 175.546 441.429 175.872C441.754 176.162 441.954 176.397 442.026 176.578L451.588 193.746L461.149 176.578C461.258 176.397 461.439 176.162 461.693 175.872C461.982 175.546 462.435 175.383 463.051 175.383H468.864C469.262 175.383 469.588 175.51 469.842 175.763C470.131 176.017 470.276 176.343 470.276 176.741V212.054C470.276 212.452 470.131 212.778 469.842 213.032C469.588 213.285 469.262 213.412 468.864 213.412H462.399C462 213.412 461.656 213.285 461.367 213.032C461.113 212.778 460.986 212.452 460.986 212.054V191.681L454.847 203.036C454.702 203.361 454.485 203.651 454.195 203.905C453.906 204.158 453.507 204.285 453 204.285H450.175C449.668 204.285 449.27 204.158 448.98 203.905C448.69 203.651 448.455 203.361 448.274 203.036L442.135 191.681V212.054C442.135 212.452 442.008 212.778 441.754 213.032C441.501 213.285 441.175 213.412 440.777 213.412H434.257ZM479.194 213.412C478.796 213.412 478.47 213.285 478.216 213.032C477.963 212.778 477.836 212.452 477.836 212.054V176.741C477.836 176.343 477.963 176.017 478.216 175.763C478.47 175.51 478.796 175.383 479.194 175.383H494.406C497.412 175.383 500.019 175.854 502.229 176.795C504.474 177.701 506.213 179.077 507.444 180.924C508.712 182.771 509.346 185.108 509.346 187.933C509.346 190.721 508.712 193.021 507.444 194.832C506.213 196.643 504.474 197.983 502.229 198.852C500.019 199.722 497.412 200.156 494.406 200.156H487.941V212.054C487.941 212.452 487.796 212.778 487.506 213.032C487.252 213.285 486.927 213.412 486.528 213.412H479.194ZM487.778 192.659H494.134C495.691 192.659 496.923 192.261 497.828 191.464C498.77 190.667 499.241 189.454 499.241 187.824C499.241 186.448 498.842 185.289 498.045 184.347C497.249 183.405 495.945 182.934 494.134 182.934H487.778V192.659ZM509.723 213.412C509.433 213.412 509.162 213.303 508.908 213.086C508.691 212.832 508.582 212.561 508.582 212.271C508.582 212.09 508.6 211.927 508.637 211.782L521.404 176.904C521.512 176.506 521.73 176.162 522.056 175.872C522.418 175.546 522.907 175.383 523.522 175.383H531.563C532.178 175.383 532.649 175.546 532.975 175.872C533.337 176.162 533.573 176.506 533.682 176.904L546.394 211.782C546.466 211.927 546.503 212.09 546.503 212.271C546.503 212.561 546.376 212.832 546.122 213.086C545.905 213.303 545.633 213.412 545.308 213.412H538.625C538.082 213.412 537.666 213.285 537.376 213.032C537.122 212.742 536.959 212.488 536.887 212.271L534.768 206.73H520.263L518.198 212.271C518.126 212.488 517.963 212.742 517.709 213.032C517.456 213.285 517.021 213.412 516.405 213.412H509.723ZM522.49 198.907H532.595L527.488 184.564L522.49 198.907ZM552.143 213.412C551.745 213.412 551.419 213.285 551.165 213.032C550.912 212.778 550.785 212.452 550.785 212.054V176.741C550.785 176.343 550.912 176.017 551.165 175.763C551.419 175.51 551.745 175.383 552.143 175.383H557.902C558.517 175.383 558.952 175.528 559.206 175.818C559.495 176.071 559.676 176.27 559.749 176.415L573.005 197.331V176.741C573.005 176.343 573.131 176.017 573.385 175.763C573.638 175.51 573.964 175.383 574.363 175.383H580.882C581.28 175.383 581.606 175.51 581.86 175.763C582.113 176.017 582.24 176.343 582.24 176.741V212.054C582.24 212.416 582.113 212.742 581.86 213.032C581.606 213.285 581.28 213.412 580.882 213.412H575.069C574.49 213.412 574.055 213.267 573.765 212.977C573.512 212.688 573.349 212.488 573.276 212.38L560.02 192.279V212.054C560.02 212.452 559.894 212.778 559.64 213.032C559.387 213.285 559.061 213.412 558.662 213.412H552.143ZM600.969 213.412C600.607 213.412 600.281 213.285 599.992 213.032C599.738 212.778 599.611 212.452 599.611 212.054V200.373L587.007 177.121C586.971 177.013 586.935 176.922 586.899 176.85C586.863 176.741 586.844 176.633 586.844 176.524C586.844 176.234 586.953 175.981 587.17 175.763C587.424 175.51 587.714 175.383 588.04 175.383H594.831C595.374 175.383 595.79 175.528 596.08 175.818C596.406 176.071 596.605 176.307 596.678 176.524L604.501 190.54L612.324 176.524C612.433 176.307 612.632 176.071 612.921 175.818C613.247 175.528 613.682 175.383 614.225 175.383H621.016C621.342 175.383 621.614 175.51 621.831 175.763C622.048 175.981 622.157 176.234 622.157 176.524C622.157 176.633 622.139 176.741 622.103 176.85C622.103 176.922 622.085 177.013 622.048 177.121L609.39 200.373V212.054C609.39 212.452 609.263 212.778 609.01 213.032C608.756 213.285 608.43 213.412 608.032 213.412H600.969ZM623.321 213.412C622.922 213.412 622.596 213.285 622.343 213.032C622.089 212.778 621.963 212.452 621.963 212.054V205.154C621.963 204.792 622.089 204.484 622.343 204.231C622.596 203.941 622.922 203.796 623.321 203.796H630.166C630.564 203.796 630.89 203.941 631.144 204.231C631.434 204.484 631.579 204.792 631.579 205.154V212.054C631.579 212.452 631.434 212.778 631.144 213.032C630.89 213.285 630.564 213.412 630.166 213.412H623.321Z" fill="black"/>
<ellipse cx="88.404" cy="136.165" rx="8.34" ry="8.20353" fill="black"/>
<ellipse cx="88.404" cy="316.642" rx="8.34" ry="8.20353" fill="black"/>
<ellipse cx="750.6" cy="316.642" rx="8.34" ry="8.20353" fill="black"/>
<ellipse cx="750.6" cy="136.165" rx="8.34" ry="8.20353" fill="black"/>
<ellipse cx="417" cy="27.8783" rx="8.34" ry="8.20353" fill="black"/>
<ellipse cx="417" cy="419.187" rx="8.34" ry="8.20353" fill="black"/>
<rect x="144.282" y="282.188" width="546.27" height="8.20353" rx="4.10176" fill="black"/>
<path d="M326.806 361.565L331.184 331.416H349.219L348.698 334.814H334.437L333.019 344.655H345.842L345.362 348.033H332.539L331.08 358.083L345.758 358.124L345.237 361.565H326.806ZM361.812 361.982C359.992 361.982 358.303 361.676 356.746 361.064C355.203 360.439 353.966 359.5 353.035 358.249C352.103 356.998 351.645 355.435 351.659 353.558H355.641C355.766 355.268 356.447 356.568 357.684 357.457C358.935 358.333 360.457 358.771 362.25 358.771C364.266 358.771 365.996 358.333 367.442 357.457C368.901 356.568 369.735 355.358 369.944 353.829C370.125 352.467 369.833 351.383 369.068 350.577C368.304 349.757 367.157 349.152 365.628 348.763L360.207 347.387C358.136 346.9 356.579 346.031 355.537 344.78C354.508 343.529 354.126 341.875 354.39 339.818C354.626 338.081 355.279 336.552 356.35 335.231C357.42 333.911 358.782 332.882 360.436 332.145C362.104 331.409 363.932 331.04 365.92 331.04C368.13 331.04 369.958 331.464 371.403 332.312C372.849 333.16 373.899 334.258 374.552 335.606C375.219 336.941 375.483 338.331 375.344 339.776H371.424C371.48 338.414 371.244 337.337 370.715 336.545C370.187 335.738 369.464 335.169 368.547 334.835C367.63 334.487 366.608 334.314 365.482 334.314C364.398 334.314 363.348 334.508 362.334 334.897C361.319 335.287 360.457 335.864 359.748 336.628C359.053 337.379 358.629 338.317 358.476 339.443C358.324 340.541 358.553 341.43 359.165 342.112C359.776 342.779 360.978 343.356 362.772 343.842L368.005 345.218C369.895 345.649 371.278 346.337 372.154 347.282C373.03 348.214 373.565 349.256 373.76 350.41C373.954 351.564 373.982 352.689 373.843 353.788C373.634 355.303 373.009 356.679 371.966 357.916C370.938 359.153 369.555 360.14 367.817 360.877C366.094 361.613 364.092 361.982 361.812 361.982ZM384.795 361.565L388.611 334.96H379.458L379.979 331.416H401.58L401.1 334.96H392.385L388.548 361.565H384.795ZM395.648 361.565L396.378 356.644H400.819L400.09 361.565H395.648ZM414.53 361.565L414.863 359.209L415.051 357.978C415.301 356.171 415.878 354.649 416.782 353.412C417.685 352.161 418.769 351.091 420.034 350.201C421.313 349.312 422.647 348.506 424.037 347.783C425.441 347.06 426.769 346.323 428.02 345.573C429.285 344.822 430.348 343.974 431.21 343.029C432.072 342.084 432.6 340.93 432.794 339.568C433.003 338.039 432.662 336.795 431.773 335.836C430.897 334.877 429.597 334.397 427.874 334.397C426.025 334.397 424.454 334.953 423.162 336.065C421.869 337.177 421.021 338.657 420.618 340.506H416.886C417.15 338.769 417.775 337.184 418.762 335.752C419.749 334.307 421.056 333.153 422.682 332.291C424.322 331.429 426.261 330.999 428.499 330.999C431.39 330.999 433.58 331.791 435.067 333.375C436.568 334.946 437.138 337.01 436.777 339.568C436.513 341.375 435.936 342.897 435.046 344.134C434.157 345.357 433.079 346.4 431.814 347.262C430.563 348.123 429.25 348.902 427.874 349.597C426.512 350.278 425.212 350.973 423.975 351.682C422.738 352.391 421.695 353.211 420.847 354.142C419.999 355.059 419.478 356.192 419.284 357.541L419.2 358.145H434.316L433.837 361.565H414.53ZM448.128 362.023C444.973 362.023 442.652 360.731 441.164 358.145C439.691 355.546 439.316 351.703 440.038 346.615C440.761 341.458 442.235 337.566 444.459 334.939C446.697 332.312 449.386 330.999 452.528 330.999C455.641 330.999 457.942 332.312 459.429 334.939C460.916 337.552 461.298 341.424 460.576 346.553C459.853 351.668 458.386 355.525 456.176 358.124C453.966 360.724 451.284 362.023 448.128 362.023ZM448.629 358.687C450.658 358.687 452.326 357.742 453.633 355.852C454.939 353.961 455.891 350.869 456.489 346.573C457.101 342.209 457.01 339.067 456.218 337.149C455.44 335.217 454.05 334.251 452.048 334.251C450.033 334.251 448.351 335.224 447.002 337.17C445.654 339.102 444.674 342.237 444.062 346.573C443.465 350.841 443.569 353.927 444.375 355.831C445.181 357.735 446.599 358.687 448.629 358.687ZM463.03 361.565L463.364 359.209L463.552 357.978C463.802 356.171 464.379 354.649 465.282 353.412C466.186 352.161 467.27 351.091 468.535 350.201C469.814 349.312 471.148 348.506 472.538 347.783C473.942 347.06 475.269 346.323 476.52 345.573C477.785 344.822 478.849 343.974 479.71 343.029C480.572 342.084 481.1 340.93 481.295 339.568C481.504 338.039 481.163 336.795 480.273 335.836C479.398 334.877 478.098 334.397 476.374 334.397C474.526 334.397 472.955 334.953 471.662 336.065C470.37 337.177 469.522 338.657 469.119 340.506H465.386C465.651 338.769 466.276 337.184 467.263 335.752C468.25 334.307 469.556 333.153 471.183 332.291C472.823 331.429 474.762 330.999 477 330.999C479.891 330.999 482.08 331.791 483.568 333.375C485.069 334.946 485.639 337.01 485.277 339.568C485.013 341.375 484.436 342.897 483.547 344.134C482.657 345.357 481.58 346.4 480.315 347.262C479.064 348.123 477.751 348.902 476.374 349.597C475.012 350.278 473.713 350.973 472.475 351.682C471.238 352.391 470.196 353.211 469.348 354.142C468.5 355.059 467.979 356.192 467.784 357.541L467.701 358.145H482.817L482.338 361.565H463.03ZM496.629 362.023C493.474 362.023 491.152 360.731 489.665 358.145C488.192 355.546 487.816 351.703 488.539 346.615C489.262 341.458 490.735 337.566 492.959 334.939C495.197 332.312 497.887 330.999 501.028 330.999C504.142 330.999 506.442 332.312 507.93 334.939C509.417 337.552 509.799 341.424 509.076 346.553C508.354 351.668 506.887 355.525 504.677 358.124C502.467 360.724 499.784 362.023 496.629 362.023ZM497.129 358.687C499.159 358.687 500.827 357.742 502.133 355.852C503.44 353.961 504.392 350.869 504.99 346.573C505.601 342.209 505.511 339.067 504.719 337.149C503.94 335.217 502.55 334.251 500.549 334.251C498.533 334.251 496.851 335.224 495.503 337.17C494.155 339.102 493.175 342.237 492.563 346.573C491.965 350.841 492.07 353.927 492.876 355.831C493.682 357.735 495.1 358.687 497.129 358.687Z" fill="black"/>
</svg>
